<?xml version="1.0" encoding="UTF-8"?>
<svg id="_レイヤー_1" data-name="レイヤー_1" xmlns="http://www.w3.org/2000/svg" width="1052.6893727" height="789.5170295" version="1.1" viewBox="0 0 1052.6893727 789.5170295">
  <!-- Generator: Adobe Illustrator 29.7.1, SVG Export Plug-In . SVG Version: 2.1.1 Build 8)  -->
  <defs>
    <style>
      .st0 {
        stroke: #fb9334;
        stroke-width: 2.1486445px;
      }

      .st0, .st1, .st2 {
        fill: #fb9334;
      }

      .st0, .st3, .st4, .st5, .st2 {
        stroke-linecap: round;
        stroke-linejoin: round;
      }

      .st3, .st4, .st5, .st2 {
        stroke: #1a1a1a;
      }

      .st3, .st5 {
        fill: none;
      }

      .st3, .st2 {
        stroke-width: 4.7550458px;
      }

      .st4 {
        fill: #fff;
        stroke-width: 9.5100915px;
      }

      .st5 {
        stroke-width: 2.6502547px;
      }

      .st6 {
        fill: #1a1a1a;
      }
    </style>
  </defs>
  <g>
    <g>
      <path class="st4" d="M313.2979587,269.8535766c-32.7467288,19.4708719-75.7225359,15.1191389-103.896874-13.0551991-33.3210127-33.3210127-33.3210127-87.3450484,0-120.6660611,33.3210127-33.3210127,87.3450484-33.3210127,120.6660611,0,33.3210127,33.3210127,33.3210127,87.3450484,0,120.6660611"/>
      <g>
        <polyline class="st3" points="322.404963 221.0829664 208.181965 221.0829664 208.181965 165.6538048 331.2862657 165.6538048 331.2862657 221.0829664"/>
        <path class="st2" d="M322.7084215,181.9802055v22.7771679c-4.2764286,0-7.7467523,3.4703237-7.7467523,7.7467523h-90.4570111c0-4.2764286-3.4703237-7.7467523-7.7467523-7.7467523v-22.7771679c4.2764286,0,7.7467523-3.4703237,7.7467523-7.7524751h90.4570111c0,4.2821514,3.4703237,7.7524751,7.7467523,7.7524751Z"/>
        <ellipse class="st6" cx="269.7342091" cy="193.3683856" rx="10.2751712" ry="14.0779429"/>
      </g>
    </g>
    <g>
      <path class="st4" d="M826.5191007,658.5027593c-32.7467288,19.4708719-75.7225359,15.1191389-103.896874-13.0551991-33.3210127-33.3210127-33.3210127-87.3450484,0-120.6660611,33.3210127-33.3210127,87.3450484-33.3210127,120.6660611,0,33.3210127,33.3210127,33.3210127,87.3450484,0,120.6660611"/>
      <g>
        <rect class="st1" x="788.769342" y="590.8529735" width="12.3134269" height="12.3130468"/>
        <rect class="st6" x="801.082769" y="603.1660203" width="12.3130268" height="12.3132068"/>
        <rect class="st6" x="788.769342" y="615.4792271" width="12.3134269" height="12.3134269"/>
        <rect class="st6" x="813.3957957" y="590.8529735" width="12.3134269" height="12.3130468"/>
        <rect class="st1" x="813.3957957" y="615.4792271" width="12.3134269" height="12.3134269"/>
        <rect class="st1" x="757.9858047" y="560.0696363" width="12.3134269" height="12.3131268"/>
        <path class="st6" d="M745.6727779,547.7562093v36.9400607h36.9398606v-36.9400607h-36.9398606ZM776.4559351,578.5396667h-24.6264537v-24.6267538h24.6264537v24.6267538Z"/>
        <rect class="st1" x="757.9858047" y="603.1660203" width="12.3134269" height="12.3132068"/>
        <path class="st6" d="M745.6727779,590.8529735v36.9396805h36.9398606v-36.9396805h-36.9398606ZM776.4559351,621.6361307h-24.6264537v-24.6262336h24.6264537v24.6262336Z"/>
        <path class="st1" d="M801.082769,560.0696363v12.3131268h12.3130268v-12.3131268h-12.3130268Z"/>
        <path class="st6" d="M819.5524992,547.7562093h-30.7831572v36.9400607h36.9398806v-36.9400607h-6.1567235ZM819.5524992,578.5396667h-24.6264337v-24.6267538h24.6264337v24.6267538Z"/>
      </g>
    </g>
    <g>
      <path class="st4" d="M313.2979587,658.5027593c-32.7467288,19.4708719-75.7225359,15.1191389-103.896874-13.0551991-33.3210127-33.3210127-33.3210127-87.3450484,0-120.6660611,33.3210127-33.3210127,87.3450484-33.3210127,120.6660611,0,33.3210127,33.3210127,33.3210127,87.3450484,0,120.6660611"/>
      <g>
        <rect class="st1" x="222.2661574" y="571.7962985" width="94.9361034" height="15.9781332"/>
        <rect class="st6" x="230.5972316" y="596.4234252" width="13.6505468" height="13.6505468"/>
        <line class="st5" x1="249.6841769" y1="607.7025998" x2="261.158975" y2="607.7025998"/>
        <line class="st5" x1="249.6841769" y1="601.4387302" x2="308.4665487" y2="601.4387302"/>
        <line class="st5" x1="265.4533681" y1="607.7025998" x2="276.9281662" y2="607.7025998"/>
        <line class="st5" x1="281.2225594" y1="607.7025998" x2="292.6973574" y2="607.7025998"/>
        <line class="st5" x1="296.9917506" y1="607.7025998" x2="308.4665487" y2="607.7025998"/>
        <path class="st6" d="M235.0469565,561.6787416v6.5060412l-5.6339717-3.2529919,5.6339717-3.2530492Z"/>
        <path class="st3" d="M296.991755,618.4324408h-65.2399026c-5.2388046,0-9.4856949-4.2468903-9.4856949-9.4856949v-42.3391918c0-5.2388046,4.2468903-9.4856949,9.4856949-9.4856949h75.9647135c5.2388046,0,9.4856949,4.2468903,9.4856949,9.4856949v42.3391918c0,5.2388046-4.2468903,9.4856949-9.4856949,9.4856949"/>
      </g>
    </g>
    <g>
      <path class="st4" d="M826.5191007,269.8535766c-32.7467288,19.4708719-75.7225359,15.1191389-103.896874-13.0551991-33.3210127-33.3210127-33.3210127-87.3450484,0-120.6660611,33.3210127-33.3210127,87.3450484-33.3210127,120.6660611,0,33.3210127,33.3210127,33.3210127,87.3450484,0,120.6660611"/>
      <g>
        <g>
          <polygon class="st0" points="744.9729635 214.5377323 744.9729635 172.1988515 763.4688954 172.1988515 789.55332 214.5377323 744.9729635 214.5377323"/>
          <g>
            <path class="st6" d="M802.3012695,171.0859375v20.7519531h-3.9394531v-20.7519531h3.9394531Z"/>
            <path class="st6" d="M805.7592773,179.0561523c0-5.5141602,2.5361328-8.2709961,7.6088867-8.2709961,2.265625,0,4.0703125.6015625,5.4135742,1.8046875s2.0151367,2.8974609,2.0151367,5.0825195v.2104492h-3.9399414v-.1801758c0-1.0625-.3061523-1.9047852-.9174805-2.5263672s-1.4785156-.9321289-2.6015625-.9321289c-1.2631836,0-2.1801758.390625-2.7519531,1.1728516-.5712891.7817383-.8569336,2.0649414-.8569336,3.8496094v4.480957c0,1.6845703.2958984,2.9072266.887207,3.6694336.5913086.7617188,1.519043,1.1425781,2.7822266,1.1425781,1.1225586,0,1.9794922-.3007812,2.5712891-.9023438.5913086-.6010742.887207-1.4233398.887207-2.4658203v-.2407227h3.8793945v.2104492c0,2.2255859-.6616211,3.9350586-1.9848633,5.1279297s-3.1376953,1.7895508-5.4433594,1.7895508c-5.0327148,0-7.5488281-2.7568359-7.5488281-8.2709961v-4.7514648Z"/>
          </g>
        </g>
        <path class="st3" d="M810.2128113,224.0236855h-65.239922c-5.2388062,0-9.4856977-4.2468915-9.4856977-9.4856977v-42.3392044c0-5.2388062,4.2468915-9.4856977,9.4856977-9.4856977h75.9647362c5.2388062,0,9.4856977,4.2468915,9.4856977,9.4856977v42.3392044c0,5.2388062-4.2468915,9.4856977-9.4856977,9.4856977"/>
      </g>
    </g>
  </g>
  <path class="st6" d="M480.7483725,503.6585213c-50.3998213-20.3178402-82.6163941-72.8356632-75.0102349-129.1565482,8.9955947-66.6091576,70.2853563-113.3141783,136.8945139-104.3185836,66.6091576,8.9955947,113.3141783,70.2853563,104.3185836,136.8945139-8.9955947,66.6091576-70.2853563,113.3141783-136.8945139,104.3185836"/>
  <path class="st1" d="M492.9438477,436.1665039v-16.5351562h24.2387695v-10.3339844h-24.2387695v-16.5351562h20.2929688l-29.1240234-64.2607422h25.3657227l20.480957,52.0473633,19.7290039-52.0473633h25.1782227l-29.1240234,64.2607422h20.2929688v16.5351562h-24.2387695v10.3339844h24.2387695v16.5351562h-24.2387695v21.9838867h-24.6142578v-21.9838867h-24.2387695Z"/>
  <g>
    <g>
      <polygon class="st1" points="414.5466608 269.0741829 368.8872711 269.0741829 368.8872711 314.7335726 414.5466608 269.0741829"/>
      <polygon class="st1" points="638.1427118 269.0741829 683.8021016 269.0741829 683.8021016 314.7335726 638.1427118 269.0741829"/>
    </g>
    <g>
      <polygon class="st1" points="414.5466608 512.5298863 368.8872711 512.5298863 368.8872711 466.8704965 414.5466608 512.5298863"/>
      <polygon class="st1" points="638.1427118 512.5298863 683.8021016 512.5298863 683.8021016 466.8704965 638.1427118 512.5298863"/>
    </g>
  </g>
</svg>