<?xml version="1.0" encoding="UTF-8"?>
<svg id="_レイヤー_1" data-name="レイヤー_1" xmlns="http://www.w3.org/2000/svg" width="1052.6893727" height="789.5170295" version="1.1" viewBox="0 0 1052.6893727 789.5170295">
  <!-- Generator: Adobe Illustrator 29.7.1, SVG Export Plug-In . SVG Version: 2.1.1 Build 8)  -->
  <defs>
    <style>
      .st0 {
        stroke-width: 15.6259769px;
      }

      .st0, .st1, .st2, .st3 {
        stroke-linecap: round;
        stroke-linejoin: round;
      }

      .st0, .st1, .st3 {
        stroke: #1a1a1a;
      }

      .st0, .st4 {
        fill: #1a1a1a;
      }

      .st5 {
        fill: #fb9334;
      }

      .st1 {
        fill: #fff;
      }

      .st1, .st3 {
        stroke-width: 17px;
      }

      .st2 {
        stroke: #fb9334;
        stroke-width: 24.2564347px;
      }

      .st2, .st3 {
        fill: none;
      }
    </style>
  </defs>
  <polyline class="st3" points="636.732785 525.750061 365.4873282 525.750061 365.4873282 330.5356445 439.6423575 330.5356445 455.5862052 273.4730225 596.7412345 273.4730225 612.6853262 330.5356445 683.8369376 330.5356445 683.8369376 525.750061 667.1921184 525.750061"/>
  <rect class="st0" x="365.4873462" y="285.8014569" width="54.0593691" height="18.7056424"/>
  <circle class="st1" cx="521.7919441" cy="423.1373814" r="69.5764102"/>
  <g>
    <g>
      <polygon class="st5" points="376.0538787 293.9148094 392.5170307 342.9748535 408.9801827 293.9148094 376.0538787 293.9148094"/>
      <polygon class="st5" points="376.0538787 293.9148094 392.5170307 244.8547654 408.9801827 293.9148094 376.0538787 293.9148094"/>
    </g>
    <g>
      <polygon class="st5" points="392.5170307 277.4516574 343.4569866 293.9148094 392.5170307 310.3779615 392.5170307 277.4516574"/>
      <polygon class="st5" points="392.5170307 277.4516574 441.5770748 293.9148094 392.5170307 310.3779615 392.5170307 277.4516574"/>
    </g>
  </g>
  <circle class="st4" cx="521.7919441" cy="423.1373814" r="41.7202384"/>
  <g>
    <circle class="st2" cx="524.6621551" cy="399.6115449" r="276.9272362"/>
    <line class="st2" x1="720.4792817" y1="203.7944183" x2="328.8450285" y2="595.4286715"/>
  </g>
</svg>