<?xml version="1.0" encoding="UTF-8"?>
<svg id="_レイヤー_1" xmlns="http://www.w3.org/2000/svg" width="371.3653973mm" height="278.5240588mm" version="1.1" viewBox="0 0 1052.6893311 789.5170288">
  <!-- Generator: Adobe Illustrator 29.7.1, SVG Export Plug-In . SVG Version: 2.1.1 Build 8)  -->
  <defs>
    <style>
      .st0, .st1, .st2, .st3, .st4 {
        stroke-linecap: round;
        stroke-linejoin: round;
      }

      .st0, .st1, .st3 {
        stroke: #1a1a1a;
        stroke-width: 10.3981276px;
      }

      .st0, .st5, .st2 {
        fill: none;
      }

      .st1, .st6 {
        fill: #fff;
      }

      .st7, .st4 {
        fill: #bababa;
      }

      .st5 {
        stroke-miterlimit: 10;
        stroke-width: 1.6583827px;
      }

      .st5, .st4 {
        stroke: #fff;
      }

      .st2 {
        stroke: #fb9334;
        stroke-width: 19.9942646px;
      }

      .st3, .st8 {
        fill: #1a1a1a;
      }

      .st4 {
        stroke-width: 8.670846px;
      }
    </style>
  </defs>
  <g>
    <path class="st7" d="M822.7167969,158.136734H241.9487305c-3.9411621,0-7.1362305,3.1949463-7.1362305,7.1363525v247.0861664c0,3.9411621,3.1950684,7.1362305,7.1362305,7.1362305h184.1525879v-177.1113281c0-3.6640625,2.9697266-6.6337891,6.6337891-6.6337891s6.6337891,2.9697266,6.6337891,6.6337891v177.1113281h191.925293v-169.1463623c0-4.3986816,3.565918-7.9644775,7.9645996-7.9644775s7.9645996,3.5657959,7.9645996,7.9644775v117.3380127c0,30.5789795,17.2265625,45.2316895,29.5788574,51.8083496h145.9145508c3.9411621,0,7.1362305-3.1950684,7.1362305-7.1362305v-247.0861816c0-3.9414062-3.1950684-7.1363525-7.1362305-7.1363525v.0000153Z"/>
    <rect class="st8" x="234.812439" y="136.411377" width="595.0406342" height="14.2952728" rx="7.1476288" ry="7.1476288"/>
    <g>
      <rect class="st4" x="760.7559204" y="121.8158264" width="29.473938" height="55.3872833" rx="7.1476288" ry="7.1476288"/>
      <rect class="st4" x="598.6491089" y="121.8158264" width="29.473938" height="55.3872833" rx="7.1476288" ry="7.1476288"/>
      <rect class="st4" x="436.5424805" y="121.8158264" width="29.473938" height="55.3872833" rx="7.1476288" ry="7.1476288"/>
      <rect class="st4" x="274.4356995" y="121.8158264" width="29.473938" height="55.3872833" rx="7.1476288" ry="7.1476288"/>
    </g>
    <line class="st5" x1="234.1763611" y1="194.3005219" x2="234.1763611" y2="376.2404175"/>
  </g>
  <g>
    <g>
      <g>
        <path class="st6" d="M461.3361816,315.1077881c-38.2397461,0-48.0449219,55.1806641-48.0449219,123.2495117s5.2294922,123.2495117,48.0449219,123.2495117c40.3857422,0,48.045166-55.1806641,48.045166-123.2495117s-10.4587402-123.2495117-48.045166-123.2495117Z"/>
        <path class="st0" d="M461.3361816,315.1077881c-38.2397461,0-48.0449219,55.1806641-48.0449219,123.2495117s5.2294922,123.2495117,48.0449219,123.2495117c40.3857422,0,48.045166-55.1806641,48.045166-123.2495117s-10.4587402-123.2495117-48.045166-123.2495117Z"/>
      </g>
      <path class="st0" d="M481.2733765,371.3878174s-17.8901062-5.8355408-39.7767334,0c0,0,20.8201904-22.2249146,39.7767334,0Z"/>
      <path class="st0" d="M481.2733765,408.6472168s-17.8901062-5.8355408-39.7767334,0c0,0,20.8201904-22.2249146,39.7767334,0Z"/>
      <path class="st0" d="M481.2733765,445.9065857s-17.8901062-5.8355408-39.7767334,0c0,0,20.8201904-22.224884,39.7767334,0Z"/>
      <path class="st0" d="M481.2733765,483.1659851s-17.8901062-5.8355408-39.7767334,0c0,0,20.8201904-22.224884,39.7767334,0Z"/>
      <path class="st0" d="M481.2733765,520.425354s-17.8901062-5.8355713-39.7767334,0c0,0,20.8201904-22.2249146,39.7767334,0Z"/>
    </g>
    <g>
      <path class="st1" d="M641.5175781,550.9937134c0,5.8614502-4.7516479,10.6130981-10.6130981,10.6130981h-74.8638916c-5.8614502,0-10.6130981-4.7516479-10.6130981-10.6130981v-153.1098633c0-5.1305542,1.4472046-10.1570435,4.175293-14.5021362l30.2625122-48.1990051h27.2143555l30.2625122,48.1990051c2.7281494,4.3450928,4.175293,9.371582,4.175293,14.5021362v153.1098633h.0001221Z"/>
      <rect class="st1" x="579.8653564" y="309.0048218" width="27.2143555" height="26.177948"/>
      <rect class="st3" x="545.4275513" y="414.3398438" width="96.0900269" height="71.0544128"/>
    </g>
  </g>
  <g>
    <circle class="st2" cx="527.40448" cy="435.3058243" r="228.2675285"/>
    <line class="st2" x1="688.8139648" y1="273.8963013" x2="365.9949341" y2="596.715332"/>
  </g>
</svg>