<?xml version="1.0" encoding="UTF-8"?>
<svg id="_レイヤー_1" data-name="レイヤー_1" xmlns="http://www.w3.org/2000/svg" width="1052.6893727" height="789.5170295" xmlns:xlink="http://www.w3.org/1999/xlink" version="1.1" viewBox="0 0 1052.6893727 789.5170295">
  <!-- Generator: Adobe Illustrator 29.7.1, SVG Export Plug-In . SVG Version: 2.1.1 Build 8)  -->
  <defs>
    <style>
      .st0, .st1, .st2, .st3, .st4, .st5, .st6, .st7, .st8, .st9 {
        fill: none;
      }

      .st10 {
        fill: url(#_新規パターンスウォッチ_1);
      }

      .st10, .st1, .st2, .st3, .st4, .st5, .st6, .st7, .st8, .st11 {
        stroke-linecap: round;
        stroke-linejoin: round;
      }

      .st10, .st1, .st3, .st4, .st5, .st7, .st9, .st11 {
        stroke: #1a1a1a;
      }

      .st10, .st2, .st3 {
        stroke-width: 14px;
      }

      .st1 {
        stroke-width: 2.1665179px;
      }

      .st12 {
        fill: #fb9334;
      }

      .st2, .st6, .st8 {
        stroke: #fb9334;
      }

      .st4 {
        stroke-width: 10px;
      }

      .st5 {
        stroke-width: 9.597627px;
      }

      .st6, .st7, .st11 {
        stroke-width: 4.3330358px;
      }

      .st8 {
        stroke-width: 9.0922567px;
      }

      .st9 {
        stroke-width: 8.4px;
      }

      .st11 {
        fill: url(#_新規パターンスウォッチ_11);
      }
    </style>
    <pattern id="_新規パターンスウォッチ_1" data-name="新規パターンスウォッチ 1" x="0" y="0" width="72" height="72" patternTransform="translate(790.0692006 -9288.8226841) rotate(-45)" patternUnits="userSpaceOnUse" viewBox="0 0 72 72">
      <g>
        <rect class="st0" width="72" height="72"/>
        <g>
          <line class="st9" x1="71.75" y1="66" x2="144.25" y2="66"/>
          <line class="st9" x1="71.75" y1="42" x2="144.25" y2="42"/>
          <line class="st9" x1="71.75" y1="18" x2="144.25" y2="18"/>
          <line class="st9" x1="71.75" y1="54" x2="144.25" y2="54"/>
          <line class="st9" x1="71.75" y1="30" x2="144.25" y2="30"/>
          <line class="st9" x1="71.75" y1="6" x2="144.25" y2="6"/>
        </g>
        <g>
          <line class="st9" x1="-.25" y1="66" x2="72.25" y2="66"/>
          <line class="st9" x1="-.25" y1="42" x2="72.25" y2="42"/>
          <line class="st9" x1="-.25" y1="18" x2="72.25" y2="18"/>
          <line class="st9" x1="-.25" y1="54" x2="72.25" y2="54"/>
          <line class="st9" x1="-.25" y1="30" x2="72.25" y2="30"/>
          <line class="st9" x1="-.25" y1="6" x2="72.25" y2="6"/>
        </g>
        <g>
          <line class="st9" x1="-72.25" y1="66" x2=".25" y2="66"/>
          <line class="st9" x1="-72.25" y1="42" x2=".25" y2="42"/>
          <line class="st9" x1="-72.25" y1="18" x2=".25" y2="18"/>
          <line class="st9" x1="-72.25" y1="54" x2=".25" y2="54"/>
          <line class="st9" x1="-72.25" y1="30" x2=".25" y2="30"/>
          <line class="st9" x1="-72.25" y1="6" x2=".25" y2="6"/>
        </g>
      </g>
    </pattern>
    <pattern id="_新規パターンスウォッチ_11" data-name="新規パターンスウォッチ 1" patternTransform="translate(-7438.281773 -9585.7849475) rotate(-45) scale(.2166518)" xlink:href="#_新規パターンスウォッチ_1"/>
  </defs>
  <polygon class="st12" points="572.9348162 339.6487597 628.0445712 394.7585147 572.9348162 449.8682697 572.9348162 339.6487597"/>
  <rect class="st3" x="172.145839" y="394.7585147" width="303.3701817" height="44.5519543"/>
  <rect class="st2" x="143.7314356" y="394.7585147" width="11.0227437" height="44.5519543"/>
  <rect class="st10" x="387.3340711" y="394.7585147" width="88.1819495" height="44.5519543"/>
  <path class="st4" d="M143.3297001,364.1019807c-10.5428338-5.972654-14.2476965-19.3611022-8.2750425-29.903936,5.972654-10.5428338,19.3611022-14.2476965,29.903936-8.2750425"/>
  <path class="st4" d="M164.9585936,325.9230022c-14.4337171-8.1768906-19.5058772-26.5064097-11.3289866-40.9401268,8.1768906-14.4337171,26.5064097-19.5058772,40.9401268-11.3289866"/>
  <path class="st4" d="M215.8777031,260.9405932c10.5428338,5.972654,14.2476965,19.3611022,8.2750425,29.903936-5.972654,10.5428338-19.3611022,14.2476965-29.903936,8.2750425"/>
  <path class="st4" d="M194.2488096,299.1195717c14.4337171,8.1768906,19.5058772,26.5064097,11.3289866,40.9401268-8.1768906,14.4337171-26.5064097,19.5058772-40.9401268,11.3289866"/>
  <g>
    <rect class="st7" x="757.7786152" y="442.8287331" width="63.5233877" height="9.6522612"/>
    <rect class="st6" x="749.4202747" y="442.8287331" width="2.3880973" height="9.6522612"/>
    <rect class="st11" x="802.1972246" y="442.8287331" width="19.1047783" height="9.6522612"/>
    <path class="st1" d="M749.333238,436.1869398c-2.2841239-1.2939863-3.0867891-4.1946177-1.7928029-6.4787416s4.1946177-3.0867891,6.4787416-1.7928029"/>
    <path class="st1" d="M754.0191767,427.9153953c-3.1270908-1.7715381-4.2259834-5.7426614-2.4544454-8.8697522,1.7715381-3.1270908,5.7426614-4.2259834,8.8697522-2.4544454"/>
    <path class="st1" d="M765.0508936,413.8368393c2.2841239,1.2939863,3.0867891,4.1946177,1.7928029,6.4787416s-4.1946177,3.0867891-6.4787416,1.7928029"/>
    <path class="st1" d="M760.3649548,422.1083838c3.1270908,1.7715381,4.2259834,5.7426614,2.4544454,8.8697522s-5.7426614,4.2259834-8.8697522,2.4544454"/>
  </g>
  <rect class="st4" x="705.0284321" y="260.5443729" width="153.2161373" height="307.7321973"/>
  <line class="st4" x1="705.0284321" y1="347.2597526" x2="858.2445694" y2="347.2597526"/>
  <g>
    <rect class="st4" x="720.2203665" y="276.1608945" width="122.8322685" height="55.8831492"/>
    <line class="st4" x1="720.2203665" y1="289.9933571" x2="843.052635" y2="289.9933571"/>
    <line class="st4" x1="720.2203665" y1="303.8258198" x2="843.052635" y2="303.8258198"/>
    <line class="st4" x1="720.2203665" y1="317.6582825" x2="843.052635" y2="317.6582825"/>
  </g>
  <polygon class="st5" points="878.8783017 585.9473604 684.3946999 585.9473604 684.3946999 575.0793702 705.0283957 568.8434702 858.2445983 568.8434702 878.8783017 575.0793702 878.8783017 585.9473604"/>
  <circle class="st8" cx="782.1741225" cy="439.9423339" r="55.875481"/>
</svg>