<?xml version="1.0" encoding="UTF-8"?>
<svg id="_レイヤー_1" data-name="レイヤー_1" xmlns="http://www.w3.org/2000/svg" width="1052.6893727" height="789.5170295" xmlns:xlink="http://www.w3.org/1999/xlink" version="1.1" viewBox="0 0 1052.6893727 789.5170295">
  <!-- Generator: Adobe Illustrator 29.7.1, SVG Export Plug-In . SVG Version: 2.1.1 Build 8)  -->
  <defs>
    <style>
      .st0, .st1, .st2, .st3, .st4, .st5 {
        fill: none;
      }

      .st6 {
        fill: url(#_新規パターンスウォッチ_1);
      }

      .st6, .st1, .st2, .st3, .st4 {
        stroke-linecap: round;
        stroke-linejoin: round;
      }

      .st6, .st1, .st3 {
        stroke-width: 15.7874925px;
      }

      .st6, .st3, .st4, .st5 {
        stroke: #1a1a1a;
      }

      .st1, .st2 {
        stroke: #fb9334;
      }

      .st2 {
        stroke-width: 24.2564347px;
      }

      .st4 {
        stroke-width: 11.2767804px;
      }

      .st5 {
        stroke-width: 8.4px;
      }
    </style>
    <pattern id="_新規パターンスウォッチ_1" data-name="新規パターンスウォッチ 1" x="0" y="0" width="72" height="72" patternTransform="translate(1535.9317145 -10166.855085) rotate(-45) scale(1.127678)" patternUnits="userSpaceOnUse" viewBox="0 0 72 72">
      <g>
        <rect class="st0" width="72" height="72"/>
        <g>
          <line class="st5" x1="71.75" y1="66" x2="144.25" y2="66"/>
          <line class="st5" x1="71.75" y1="42" x2="144.25" y2="42"/>
          <line class="st5" x1="71.75" y1="18" x2="144.25" y2="18"/>
          <line class="st5" x1="71.75" y1="54" x2="144.25" y2="54"/>
          <line class="st5" x1="71.75" y1="30" x2="144.25" y2="30"/>
          <line class="st5" x1="71.75" y1="6" x2="144.25" y2="6"/>
        </g>
        <g>
          <line class="st5" x1="-.25" y1="66" x2="72.25" y2="66"/>
          <line class="st5" x1="-.25" y1="42" x2="72.25" y2="42"/>
          <line class="st5" x1="-.25" y1="18" x2="72.25" y2="18"/>
          <line class="st5" x1="-.25" y1="54" x2="72.25" y2="54"/>
          <line class="st5" x1="-.25" y1="30" x2="72.25" y2="30"/>
          <line class="st5" x1="-.25" y1="6" x2="72.25" y2="6"/>
        </g>
        <g>
          <line class="st5" x1="-72.25" y1="66" x2=".25" y2="66"/>
          <line class="st5" x1="-72.25" y1="42" x2=".25" y2="42"/>
          <line class="st5" x1="-72.25" y1="18" x2=".25" y2="18"/>
          <line class="st5" x1="-72.25" y1="54" x2=".25" y2="54"/>
          <line class="st5" x1="-72.25" y1="30" x2=".25" y2="30"/>
          <line class="st5" x1="-72.25" y1="6" x2=".25" y2="6"/>
        </g>
      </g>
    </pattern>
  </defs>
  <rect class="st3" x="379.817178" y="408.6347211" width="342.1038886" height="50.24026"/>
  <rect class="st1" x="347.7748796" y="408.6347211" width="12.4301059" height="50.24026"/>
  <rect class="st6" x="622.4802195" y="408.6347211" width="99.440847" height="50.24026"/>
  <path class="st4" d="M347.3218513,374.0640213c-11.888922-6.7352307-16.0668143-21.8330896-9.3315836-33.7220116,6.7352307-11.888922,21.8330896-16.0668143,33.7220116-9.3315836"/>
  <path class="st4" d="M371.7122793,331.010426c-16.2765857-9.2208999-21.9963491-29.8906959-12.7754493-46.1672815,9.2208999-16.2765857,29.8906959-21.9963491,46.1672815-12.7754493"/>
  <path class="st4" d="M429.1326403,257.7311911c11.888922,6.7352307,16.0668143,21.8330896,9.3315836,33.7220116-6.7352307,11.888922-21.8330896,16.0668143-33.7220116,9.3315836"/>
  <path class="st4" d="M404.7422124,300.7847864c16.2765857,9.2208999,21.9963491,29.8906959,12.7754493,46.1672815-9.2208999,16.2765857-29.8906959,21.9963491-46.1672815,12.7754493"/>
  <g>
    <circle class="st2" cx="527.4044525" cy="391.0214086" r="276.9272362"/>
    <line class="st2" x1="723.2215791" y1="195.204282" x2="331.5873259" y2="586.8385352"/>
  </g>
</svg>