<?xml version="1.0" encoding="UTF-8"?>
<svg id="_レイヤー_1" data-name="レイヤー_1" xmlns="http://www.w3.org/2000/svg" width="1052.6893727" height="789.5170295" version="1.1" viewBox="0 0 1052.6893727 789.5170295">
  <!-- Generator: Adobe Illustrator 29.7.1, SVG Export Plug-In . SVG Version: 2.1.1 Build 8)  -->
  <defs>
    <style>
      .st0 {
        stroke-width: 2.7541825px;
      }

      .st0, .st1 {
        fill: #1a1a1a;
      }

      .st0, .st1, .st2, .st3, .st4, .st5, .st6 {
        stroke-linecap: round;
        stroke-linejoin: round;
      }

      .st0, .st1, .st2, .st5, .st6 {
        stroke: #1a1a1a;
      }

      .st1 {
        stroke-width: 2.0848299px;
      }

      .st7 {
        fill: #fb9334;
      }

      .st2 {
        fill: #fff;
        stroke-width: 14.6681508px;
      }

      .st3 {
        stroke-width: 16.1739239px;
      }

      .st3, .st4 {
        stroke: #fb9334;
      }

      .st3, .st4, .st5, .st6 {
        fill: none;
      }

      .st4 {
        stroke-width: 28.4095287px;
      }

      .st5 {
        stroke-width: 18.484813px;
      }

      .st6 {
        stroke-width: 20.1640401px;
      }
    </style>
  </defs>
  <g>
    <g>
      <line class="st3" x1="560.4653776" y1="216.2877746" x2="560.4653776" y2="252.3507114"/>
      <line class="st3" x1="468.1514493" y1="241.0232172" x2="486.1829176" y2="272.2546365"/>
      <line class="st3" x1="400.5729635" y1="308.6017029" x2="431.8043828" y2="326.6331713"/>
      <line class="st3" x1="375.837521" y1="400.9156312" x2="411.9004577" y2="400.9156312"/>
      <line class="st3" x1="400.5729635" y1="493.2295595" x2="431.8043828" y2="475.1980912"/>
      <line class="st3" x1="468.1514493" y1="560.8080453" x2="486.1829176" y2="529.5766259"/>
      <line class="st3" x1="560.4653775" y1="585.5434878" x2="560.4653776" y2="549.4805511"/>
      <line class="st3" x1="652.7793058" y1="560.8080453" x2="634.7478375" y2="529.576626"/>
      <line class="st3" x1="720.3577916" y1="493.2295595" x2="689.1263723" y2="475.1980912"/>
      <line class="st3" x1="745.0932342" y1="400.9156313" x2="709.0302974" y2="400.9156312"/>
      <line class="st3" x1="720.3577916" y1="308.601703" x2="689.1263723" y2="326.6331713"/>
      <line class="st3" x1="652.7793059" y1="241.0232172" x2="634.7478375" y2="272.2546365"/>
    </g>
    <g>
      <polyline class="st6" points="543.1704764 186.81765 543.1704764 146.9660288 576.6609284 146.9660288 576.6609284 189.8809694"/>
      <rect class="st4" x="517.222097" y="129.5413776" width="86.4865611" height="17.4246512"/>
    </g>
    <circle class="st0" cx="560.4653776" cy="400.9156312" r="31.4435414"/>
    <path class="st1" d="M562.6186755,275.959673l13.3043887,116.6783812h-32.0147236l13.3043887-116.6783812c.3667505-3.2163716,5.0391957-3.2163716,5.4059462,0Z"/>
    <circle class="st5" cx="560.4653776" cy="400.9156312" r="211.0346618"/>
  </g>
  <g>
    <path class="st2" d="M451.3341926,474.1009412s-26.1960003-11.4050264-101.9034769-11.4050264-101.9034769,11.4050264-101.9034769,11.4050264c0,0,28.6052744,42.3508497,101.9034769,42.3508497s101.9034769-42.3508497,101.9034769-42.3508497Z"/>
    <polygon class="st2" points="383.48435 605.7907745 315.3770815 605.7907745 321.2852124 570.0676357 377.5762191 570.0676357 383.48435 605.7907745"/>
    <path class="st2" d="M451.3341926,474.1009412v6.0455563c0,56.2796799-45.623695,101.903375-101.903375,101.903375h-.0002038c-56.2796799,0-101.903375-45.623695-101.903375-101.903375v-6.0455563s25.751702,17.2669681,101.9034769,17.2669681,101.9034769-17.2669681,101.9034769-17.2669681Z"/>
    <polygon class="st7" points="252.4697133 645.1494262 444.7475327 645.1494262 444.7475327 629.4355981 252.4697133 639.2685886 252.4697133 645.1494262"/>
    <polygon class="st7" points="252.4697133 648.2663368 444.7475327 648.2663368 444.7475327 663.9801649 252.4697133 654.1471744 252.4697133 648.2663368"/>
  </g>
</svg>