<?xml version="1.0" encoding="UTF-8"?>
<svg id="_レイヤー_1" xmlns="http://www.w3.org/2000/svg" width="371.3653973mm" height="278.5240588mm" version="1.1" viewBox="0 0 1052.6893311 789.5170288">
  <!-- Generator: Adobe Illustrator 29.7.1, SVG Export Plug-In . SVG Version: 2.1.1 Build 8)  -->
  <defs>
    <style>
      .st0 {
        stroke-width: 15.4483776px;
      }

      .st0, .st1, .st2, .st3, .st4, .st5, .st6, .st7, .st8 {
        stroke-linecap: round;
        stroke-linejoin: round;
      }

      .st0, .st2, .st3, .st4, .st5, .st6 {
        stroke: #1a1a1a;
      }

      .st0, .st2, .st4, .st9, .st7, .st8 {
        fill: none;
      }

      .st1 {
        stroke-width: 6px;
      }

      .st1, .st10 {
        fill: #fb9334;
      }

      .st1, .st9 {
        stroke: #fff;
      }

      .st2, .st3 {
        stroke-width: 7.9599824px;
      }

      .st3, .st11 {
        fill: #fff;
      }

      .st4, .st8 {
        stroke-width: 14.1618633px;
      }

      .st5 {
        stroke-width: 1.5972613px;
      }

      .st5, .st6, .st12 {
        fill: #1a1a1a;
      }

      .st6 {
        stroke-width: 2.1100757px;
      }

      .st9 {
        stroke-miterlimit: 10;
        stroke-width: 1.1475576px;
      }

      .st7 {
        stroke-width: 21.7655354px;
      }

      .st7, .st8 {
        stroke: #fb9334;
      }
    </style>
  </defs>
  <path class="st10" d="M628.7741699,192.4088745H226.8979492c-2.7272949,0-4.9382324,2.2109375-4.9382324,4.9379883v170.9770508c0,2.7275391,2.2109375,4.9384766,4.9382324,4.9384766h127.4289551v-122.5566406c0-2.5351562,2.0546875-4.5898438,4.5898438-4.5898438s4.5898438,2.0546875,4.5898438,4.5898438v122.5566406h132.8081055v-117.0449219c0-3.0439453,2.4675293-5.5112305,5.5112305-5.5112305,3.0439453,0,5.5112305,2.4672852,5.5112305,5.5112305v81.1948242c0,21.1743164,11.9313965,31.3037109,20.4802246,35.8500977h100.9567871c2.7272949,0,4.9382324-2.2109375,4.9382324-4.9384766v-170.9770508c0-2.7270508-2.2109375-4.9379883-4.9382324-4.9379883Z"/>
  <rect class="st12" x="221.9597778" y="177.3753052" width="411.7526398" height="9.8919678" rx="4.9459686" ry="4.9459686"/>
  <polygon class="st10" points="516.3534546 453.7601929 571.4631958 508.8699646 516.3534546 563.9796753 516.3534546 453.7601929"/>
  <line class="st8" x1="810.5359497" y1="346.8125305" x2="810.5359497" y2="378.3891907"/>
  <line class="st8" x1="729.7059937" y1="368.4708557" x2="745.4943237" y2="395.8170166"/>
  <line class="st8" x1="670.5344238" y1="427.6424561" x2="697.8806152" y2="443.4307861"/>
  <line class="st8" x1="648.8760986" y1="508.4723816" x2="680.4527588" y2="508.4723816"/>
  <line class="st8" x1="670.5344238" y1="589.3023071" x2="697.8806152" y2="573.5139771"/>
  <line class="st8" x1="729.7059937" y1="648.473938" x2="745.4943237" y2="621.1277466"/>
  <line class="st8" x1="810.5359497" y1="670.1322632" x2="810.5359497" y2="638.555603"/>
  <line class="st8" x1="891.3659058" y1="648.473938" x2="875.5775757" y2="621.1277466"/>
  <line class="st8" x1="950.5374756" y1="589.3023071" x2="923.1912842" y2="573.5139771"/>
  <line class="st8" x1="972.1958008" y1="508.4723816" x2="940.6191406" y2="508.4723816"/>
  <line class="st8" x1="950.5374756" y1="427.6424561" x2="923.1912842" y2="443.4307861"/>
  <line class="st8" x1="891.3659058" y1="368.4708557" x2="875.5775757" y2="395.8170166"/>
  <g>
    <rect class="st0" x="797.2857056" y="313.9126892" width="25.6582031" height="30.5317078"/>
    <rect class="st7" x="777.4057617" y="300.5630798" width="66.260376" height="13.3496399"/>
  </g>
  <circle class="st6" cx="810.5359497" cy="508.4723816" r="24.0900116"/>
  <path class="st5" d="M812.1856689,412.7392578l10.1929321,89.3913879h-24.5275879l10.1929321-89.3913879c.2810059-2.4641724,3.8607178-2.4641724,4.1416626,0h.000061Z"/>
  <circle class="st4" cx="810.5359497" cy="508.4723816" r="161.6810455"/>
  <g>
    <rect class="st1" x="585.8989868" y="167.2756042" width="20.3952026" height="38.3265686" rx="4.9459686" ry="4.9459686"/>
    <rect class="st1" x="473.7253113" y="167.2756042" width="20.3952026" height="38.3265686" rx="4.9459686" ry="4.9459686"/>
    <rect class="st1" x="361.5516663" y="167.2756042" width="20.3952026" height="38.3265686" rx="4.9459686" ry="4.9459686"/>
    <rect class="st1" x="249.3780212" y="167.2756042" width="20.3952026" height="38.3265686" rx="4.9459686" ry="4.9459686"/>
  </g>
  <line class="st9" x1="221.5195923" y1="217.433136" x2="221.5195923" y2="343.3308411"/>
  <g>
    <path class="st11" d="M450.1134338,429.4128418v-63.974884c0-22.1391907-17.0922852-40.2854309-38.7965088-41.9584351-6.0450439,7.8016663-15.5029907,12.8206177-26.1375732,12.8206177-10.634613,0-20.0925293-5.0189514-26.1375732-12.8206177l-12.3803101,2.8851929c-15.4823303,6.2132568-26.4161987,21.3661194-26.4161987,39.0732422v63.974884"/>
    <ellipse class="st3" cx="384.6712646" cy="281.1418457" rx="29.6730347" ry="34.6281433"/>
    <g>
      <line class="st2" x1="426.0266418" y1="429.4134827" x2="426.0266418" y2="374.725769"/>
      <line class="st2" x1="344.331665" y1="429.4134827" x2="344.331665" y2="374.725769"/>
      <g>
        <path class="st2" d="M346.6614685,326.3646851c-15.4823303,6.2132568-26.4161987,21.3661194-26.4161987,39.0732422v63.974884"/>
        <path class="st2" d="M450.1134338,429.4128418v-63.974884c0-22.1391907-17.0922852-40.2854309-38.7965088-41.9584351-6.0450439,7.8016663-15.5029907,12.8206177-26.1375732,12.8206177-10.634613,0-20.0925293-5.0189514-26.1375732-12.8206177"/>
      </g>
    </g>
  </g>
  <g>
    <path class="st11" d="M363.9774475,451.0550537v-63.974884c0-22.1391907-17.0922852-40.2854309-38.7965088-41.9584351-6.0450439,7.8016663-15.5029907,12.8206177-26.1375732,12.8206177s-20.0925293-5.0189514-26.1375732-12.8206177l-12.3803101,2.8851929c-15.4823151,6.2132568-26.4161987,21.3661194-26.4161987,39.0732422v63.974884"/>
    <ellipse class="st3" cx="298.5353088" cy="302.7840271" rx="29.6730347" ry="34.6281433"/>
    <g>
      <line class="st2" x1="339.8906555" y1="451.0556946" x2="339.8906555" y2="396.367981"/>
      <line class="st2" x1="258.1956787" y1="451.0556946" x2="258.1956787" y2="396.367981"/>
      <g>
        <path class="st2" d="M260.5255127,348.006897c-15.4823151,6.2132568-26.4161987,21.3661194-26.4161987,39.0732422v63.974884"/>
        <path class="st2" d="M363.9774475,451.0550537v-63.974884c0-22.1391907-17.0922852-40.2854309-38.7965088-41.9584351-6.0450439,7.8016663-15.5029907,12.8206177-26.1375732,12.8206177s-20.0925293-5.0189514-26.1375732-12.8206177"/>
      </g>
    </g>
  </g>
  <g>
    <path class="st11" d="M277.8414917,472.6972351v-63.974884c0-22.1391907-17.0922852-40.2854614-38.7964935-41.9584351-6.0450287,7.8016663-15.5029755,12.8206177-26.1375885,12.8206177-10.6345978,0-20.092514-5.0189514-26.1375732-12.8206177l-12.3803101,2.8851929c-15.4823151,6.2132568-26.4161987,21.3661194-26.4161987,39.0732422v63.974884"/>
    <ellipse class="st3" cx="212.3993225" cy="324.426239" rx="29.6730347" ry="34.6281433"/>
    <g>
      <line class="st2" x1="253.7546844" y1="472.6979065" x2="253.7546844" y2="418.0101929"/>
      <line class="st2" x1="172.0597076" y1="472.6979065" x2="172.0597076" y2="418.0101929"/>
      <g>
        <path class="st2" d="M174.3895111,369.6491089c-15.4823151,6.2132568-26.4161987,21.3661194-26.4161987,39.0732422v63.974884"/>
        <path class="st2" d="M277.8414917,472.6972351v-63.974884c0-22.1391907-17.0922852-40.2854614-38.7964935-41.9584351-6.0450287,7.8016663-15.5029755,12.8206177-26.1375885,12.8206177-10.6345978,0-20.092514-5.0189514-26.1375732-12.8206177"/>
      </g>
    </g>
  </g>
  <g>
    <path class="st11" d="M191.7055054,494.339447v-63.974884c0-22.1391907-17.0923004-40.2854614-38.7964935-41.9584351-6.0450287,7.8016663-15.5029755,12.8206177-26.1375809,12.8206177s-20.0925217-5.0189514-26.1375809-12.8206177l-12.3803024,2.8851929c-15.4823151,6.2132568-26.4161987,21.3661194-26.4161987,39.0732422v63.974884"/>
    <ellipse class="st3" cx="126.2633362" cy="346.0684509" rx="29.6730347" ry="34.6281433"/>
    <g>
      <line class="st2" x1="167.6187134" y1="494.3401184" x2="167.6187134" y2="439.6523743"/>
      <line class="st2" x1="85.9237213" y1="494.3401184" x2="85.9237213" y2="439.6523743"/>
      <g>
        <path class="st2" d="M88.25354,391.2913208c-15.4823151,6.2132568-26.4161987,21.3661194-26.4161987,39.0732422v63.974884"/>
        <path class="st2" d="M191.7055054,494.339447v-63.974884c0-22.1391907-17.0923004-40.2854614-38.7964935-41.9584351-6.0450287,7.8016663-15.5029755,12.8206177-26.1375809,12.8206177s-20.0925217-5.0189514-26.1375809-12.8206177"/>
      </g>
    </g>
  </g>
</svg>