<?xml version="1.0" encoding="UTF-8"?>
<svg id="_レイヤー_1" data-name="レイヤー_1" xmlns="http://www.w3.org/2000/svg" width="1052.6893727" height="789.5170295" version="1.1" viewBox="0 0 1052.6893727 789.5170295">
  <!-- Generator: Adobe Illustrator 29.7.1, SVG Export Plug-In . SVG Version: 2.1.1 Build 8)  -->
  <defs>
    <style>
      .st0, .st1, .st2, .st3, .st4, .st5, .st6, .st7 {
        stroke-linecap: round;
        stroke-linejoin: round;
      }

      .st0, .st1, .st3, .st4 {
        stroke: #fb9334;
      }

      .st0, .st8 {
        fill: #fb9334;
      }

      .st0, .st2, .st4, .st5, .st7 {
        stroke-width: 16.4549344px;
      }

      .st1 {
        stroke-width: 14.6646933px;
      }

      .st1, .st9, .st7 {
        fill: #fff;
      }

      .st2 {
        stroke: #fff;
      }

      .st2, .st3, .st4, .st5, .st6 {
        fill: none;
      }

      .st3 {
        stroke-width: 11.2763927px;
      }

      .st5, .st6, .st7 {
        stroke: #1a1a1a;
      }

      .st6 {
        stroke-width: 15.6426372px;
      }
    </style>
  </defs>
  <path class="st6" d="M748.1244704,127.7290164h-227.6260501c-34.912945,0-63.2153864,28.3024414-63.2153864,63.2153864v126.6345166c0,34.912754,28.3024414,63.2151955,63.2153864,63.2151955h17.764857v71.5509336l71.2209718-71.5509336h138.6402214c34.9128495,0,63.2152909-28.3024414,63.2152909-63.2151955v-126.6345166c0-34.912945-28.3024414-63.2153864-63.2152909-63.2153864Z"/>
  <path class="st1" d="M865.1946314,426.8979423h-153.1867184l99.3232445-172.0260699,99.3404523,172.0260699h-18.9557395"/>
  <path class="st8" d="M819.8984508,315.3608398l-2.9140625,55.8432617h-11.2900391l-2.9130859-55.8432617h17.1171875ZM819.291029,383.3442383v15.7817383h-15.9033203v-15.7817383h15.9033203Z"/>
  <g>
    <circle class="st3" cx="636.6477211" cy="251.9251659" r="78.7811132"/>
    <g>
      <path class="st3" d="M715.4288343,251.9251659h-157.5622265s15.2420729,42.5439352,78.7811132,42.5439352,78.7811132-42.5439352,78.7811132-42.5439352Z"/>
      <path class="st3" d="M715.4288343,251.9251659h-157.5622265s15.2420729-42.5439352,78.7811132-42.5439352,78.7811132,42.5439352,78.7811132,42.5439352Z"/>
    </g>
    <g>
      <path class="st3" d="M636.6477211,330.7062791v-157.5622265s-42.5439352,15.2420729-42.5439352,78.7811132,42.5439352,78.7811132,42.5439352,78.7811132Z"/>
      <path class="st3" d="M636.6477211,330.7062791v-157.5622265s42.5439352,15.2420729,42.5439352,78.7811132c0,63.5390403-42.5439352,78.7811132-42.5439352,78.7811132Z"/>
    </g>
  </g>
  <g>
    <g>
      <path class="st9" d="M484.4121117,661.7866457v-132.2493458c0-45.766301-35.3333215-83.2783637-80.2004036-86.736768-12.4963281,16.1276807-32.0478656,26.5028935-54.0317972,26.5028935s-41.5353988-10.3752128-54.0317972-26.5028935l-25.5926505,5.9642629c-32.0051532,12.8440609-54.6077531,44.1681848-54.6077531,80.7725052v132.2493458"/>
      <ellipse class="st7" cx="349.1295976" cy="355.2797605" rx="61.3403185" ry="71.5835642"/>
      <g>
        <rect class="st0" x="265.7392532" y="511.1829318" width="168.8804683" height="150.6050813"/>
        <g>
          <path class="st5" d="M254.6853962,457.136352c-23.3546545,15.5991454-38.7376861,42.2032306-38.7376861,72.4009479v132.2493458"/>
          <path class="st5" d="M484.4121117,661.7866457v-132.2493458c0-45.766301-35.3333215-83.2783637-80.2004036-86.736768-12.4963281,16.1276807-32.0478656,26.5028935-54.0317972,26.5028935s-41.5353988-10.3752128-54.0317972-26.5028935"/>
        </g>
      </g>
    </g>
    <line class="st4" x1="278.9460878" y1="442.8005319" x2="278.9460878" y2="537.1103419"/>
    <line class="st4" x1="423.1607809" y1="442.8005319" x2="423.1607809" y2="537.1103419"/>
    <path class="st2" d="M366.2640536,537.1103419h48.0321182v29.2559507c0,13.2548106-10.7612245,24.0160351-24.0160351,24.0160351h-.000048c-13.2548106,0-24.0160351-10.7612245-24.0160351-24.0160351v-29.2559506h0Z"/>
  </g>
</svg>