<?xml version="1.0" encoding="UTF-8"?>
<svg id="_レイヤー_1" xmlns="http://www.w3.org/2000/svg" width="371.3653973mm" height="278.5240588mm" version="1.1" viewBox="0 0 1052.6893311 789.5170288">
  <!-- Generator: Adobe Illustrator 29.7.1, SVG Export Plug-In . SVG Version: 2.1.1 Build 8)  -->
  <defs>
    <style>
      .st0 {
        stroke-width: 6px;
      }

      .st0, .st1, .st2, .st3, .st4, .st5, .st6, .st7, .st8, .st9, .st10, .st11, .st12, .st13, .st14, .st15 {
        stroke-linecap: round;
        stroke-linejoin: round;
      }

      .st0, .st16, .st11, .st12 {
        fill: #fb9334;
      }

      .st0, .st17 {
        stroke: #fff;
      }

      .st1 {
        stroke-width: 13.2447796px;
      }

      .st1, .st2, .st3, .st4, .st5, .st6, .st10, .st15 {
        stroke: #1a1a1a;
      }

      .st1, .st2, .st5, .st17, .st13, .st14 {
        fill: none;
      }

      .st2, .st4 {
        stroke-width: 7.9599824px;
      }

      .st3 {
        stroke-width: 1.973433px;
      }

      .st3, .st6, .st15, .st18 {
        fill: #1a1a1a;
      }

      .st4, .st10, .st19 {
        fill: #fff;
      }

      .st5 {
        stroke-width: 14.4479828px;
      }

      .st6 {
        stroke-width: 1.493827px;
      }

      .st7 {
        stroke-width: 10.468997px;
      }

      .st7, .st8 {
        fill: #fdc999;
        stroke: #fdc999;
      }

      .st8 {
        stroke-width: 10.4689972px;
      }

      .st9 {
        fill: #fca95d;
        stroke: #fca95d;
      }

      .st9, .st12 {
        stroke-width: 10.4689971px;
      }

      .st10, .st15 {
        stroke-width: 10.468997px;
      }

      .st17 {
        stroke-miterlimit: 10;
        stroke-width: 1.1475576px;
      }

      .st11 {
        stroke-width: 10.4689967px;
      }

      .st11, .st12, .st13, .st14 {
        stroke: #fb9334;
      }

      .st13 {
        stroke-width: 20.3560581px;
      }

      .st14 {
        stroke-width: 11.5889759px;
      }
    </style>
  </defs>
  <path class="st16" d="M644.8305664,194.9554596H242.9541168c-2.7270508,0-4.9379883,2.2109375-4.9379883,4.9381104v170.9772797c0,2.7271729,2.2109375,4.9381104,4.9379883,4.9381104h127.4296722v-122.5556641c0-2.5351562,2.0546875-4.5898438,4.5898438-4.5898438s4.5898438,2.0546875,4.5898438,4.5898438v122.5556641h132.8076172v-117.0449219c0-3.0437012,2.4672852-5.5112305,5.5112305-5.5112305h0c3.0439453,0,5.5112305,2.4675293,5.5112305,5.5112305v81.1948242c0,21.1745605,11.9311523,31.303833,20.4799805,35.8500977h100.9570312c2.7270508,0,4.9379883-2.2109375,4.9379883-4.9381104v-170.9772949c0-2.7271729-2.2109375-4.9381104-4.9379883-4.9381104v.0000153Z"/>
  <g>
    <g>
      <line class="st14" x1="858.7120361" y1="356.3112793" x2="858.7120361" y2="382.1511841"/>
      <line class="st14" x1="792.5670776" y1="374.0347595" x2="805.4869995" y2="396.4127808"/>
      <line class="st14" x1="744.1455688" y1="422.4562683" x2="766.5236206" y2="435.3762207"/>
      <line class="st14" x1="726.4221191" y1="488.6012268" x2="752.2620239" y2="488.6012268"/>
      <line class="st14" x1="744.1455688" y1="554.7462158" x2="766.5236206" y2="541.8262939"/>
      <line class="st14" x1="792.5670776" y1="603.1677246" x2="805.4869995" y2="580.7897339"/>
      <line class="st14" x1="858.7120361" y1="620.8912354" x2="858.7120361" y2="595.0513306"/>
      <line class="st14" x1="924.8570557" y1="603.1677246" x2="911.9370728" y2="580.7897339"/>
      <line class="st14" x1="973.2785034" y1="554.7462158" x2="950.9005127" y2="541.8262939"/>
      <line class="st14" x1="991.0020142" y1="488.6012268" x2="965.1621094" y2="488.6012268"/>
      <line class="st14" x1="973.2785034" y1="422.4562683" x2="950.9005127" y2="435.3762207"/>
      <line class="st14" x1="924.8570557" y1="374.0347595" x2="911.9370728" y2="396.4127808"/>
    </g>
    <g>
      <polyline class="st5" points="846.3198853 335.195282 846.3198853 306.6407166 870.3165283 306.6407166 870.3165283 322.6435547"/>
      <rect class="st13" x="827.7272949" y="294.1555481" width="61.9695435" height="12.4851379"/>
    </g>
    <circle class="st3" cx="858.7120361" cy="488.6012268" r="22.5299835"/>
    <path class="st6" d="M860.2549438,399.0675049l9.5328979,83.6026611h-22.93927l9.5328979-83.6026611c.2627563-2.3045959,3.6107178-2.3045959,3.8734741,0Z"/>
    <circle class="st1" cx="858.7120361" cy="488.6012268" r="151.2110443"/>
  </g>
  <rect class="st18" x="238.0159912" y="179.9220581" width="411.7526703" height="9.8919678" rx="4.9459686" ry="4.9459686"/>
  <polygon class="st16" points="532.409729 428.3577576 587.5194702 483.4674988 532.409729 538.5772705 532.409729 428.3577576"/>
  <g>
    <rect class="st0" x="601.9551392" y="169.8223419" width="20.3952026" height="38.3265686" rx="4.9459686" ry="4.9459686"/>
    <rect class="st0" x="489.7815552" y="169.8223419" width="20.3952026" height="38.3265686" rx="4.9459686" ry="4.9459686"/>
    <rect class="st0" x="377.6079102" y="169.8223419" width="20.3952026" height="38.3265686" rx="4.9459686" ry="4.9459686"/>
    <rect class="st0" x="265.4342651" y="169.8223419" width="20.3952026" height="38.3265686" rx="4.9459686" ry="4.9459686"/>
  </g>
  <line class="st17" x1="237.5758362" y1="219.9798737" x2="237.5758362" y2="345.8775635"/>
  <g>
    <path class="st19" d="M466.1696777,431.9595642v-63.974884c0-22.1391907-17.0922852-40.2854614-38.7965088-41.9584351-6.0450439,7.8016663-15.5029907,12.8206177-26.1375732,12.8206177-10.634613,0-20.0925293-5.0189514-26.1375732-12.8206177l-12.3803101,2.8851929c-15.4822998,6.2132568-26.4161987,21.3661194-26.4161987,39.0732422v63.974884"/>
    <ellipse class="st4" cx="400.7275391" cy="283.6885681" rx="29.6730347" ry="34.6281433"/>
    <g>
      <line class="st2" x1="442.0828857" y1="431.9602356" x2="442.0828857" y2="377.2724915"/>
      <line class="st2" x1="360.3879089" y1="431.9602356" x2="360.3879089" y2="377.2724915"/>
      <g>
        <path class="st2" d="M362.7177124,328.911438c-15.4822998,6.2132568-26.4161987,21.3661194-26.4161987,39.0732422v63.974884"/>
        <path class="st2" d="M466.1696777,431.9595642v-63.974884c0-22.1391907-17.0922852-40.2854614-38.7965088-41.9584351-6.0450439,7.8016663-15.5029907,12.8206177-26.1375732,12.8206177-10.634613,0-20.0925293-5.0189514-26.1375732-12.8206177"/>
      </g>
    </g>
  </g>
  <g>
    <path class="st19" d="M380.0337219,453.6017761v-63.974884c0-22.1391907-17.0922852-40.2854614-38.7965088-41.9584351-6.0450439,7.8016663-15.5029907,12.8206177-26.1375732,12.8206177-10.634613,0-20.0925293-5.0189514-26.1375732-12.8206177l-12.3803101,2.8851929c-15.4823303,6.2132568-26.4161987,21.3661194-26.4161987,39.0732422v63.974884"/>
    <ellipse class="st4" cx="314.5915527" cy="305.33078" rx="29.6730347" ry="34.6281433"/>
    <g>
      <line class="st2" x1="355.9469299" y1="453.6024475" x2="355.9469299" y2="398.9147034"/>
      <line class="st2" x1="274.2519226" y1="453.6024475" x2="274.2519226" y2="398.9147034"/>
      <g>
        <path class="st2" d="M276.5817566,350.5536499c-15.4823303,6.2132568-26.4161987,21.3661194-26.4161987,39.0732422v63.974884"/>
        <path class="st2" d="M380.0337219,453.6017761v-63.974884c0-22.1391907-17.0922852-40.2854614-38.7965088-41.9584351-6.0450439,7.8016663-15.5029907,12.8206177-26.1375732,12.8206177-10.634613,0-20.0925293-5.0189514-26.1375732-12.8206177"/>
      </g>
    </g>
  </g>
  <g>
    <path class="st19" d="M293.8977356,475.243988v-63.974884c0-22.1391907-17.0922852-40.2854614-38.7964935-41.9584351-6.0450287,7.8016663-15.5029755,12.8206177-26.1375885,12.8206177s-20.092514-5.0189514-26.1375732-12.8206177l-12.3803101,2.8851929c-15.4823151,6.2132568-26.4161987,21.3661194-26.4161987,39.0732422v63.974884"/>
    <ellipse class="st4" cx="228.4555664" cy="326.9729919" rx="29.6730347" ry="34.6281433"/>
    <g>
      <line class="st2" x1="269.8109436" y1="475.2446289" x2="269.8109436" y2="420.5569153"/>
      <line class="st2" x1="188.1159515" y1="475.2446289" x2="188.1159515" y2="420.5569153"/>
      <g>
        <path class="st2" d="M190.4457703,372.1958313c-15.4823151,6.2132568-26.4161987,21.3661194-26.4161987,39.0732422v63.974884"/>
        <path class="st2" d="M293.8977356,475.243988v-63.974884c0-22.1391907-17.0922852-40.2854614-38.7964935-41.9584351-6.0450287,7.8016663-15.5029755,12.8206177-26.1375885,12.8206177s-20.092514-5.0189514-26.1375732-12.8206177"/>
      </g>
    </g>
  </g>
  <g>
    <path class="st19" d="M207.7617493,496.8861694v-63.974884c0-22.1391907-17.0923004-40.2854309-38.7964935-41.9584351-6.0450287,7.8016663-15.5029755,12.8206177-26.1375885,12.8206177-10.6345978,0-20.092514-5.0189514-26.1375809-12.8206177l-12.3803024,2.8851929c-15.4823151,6.2132568-26.4161987,21.3661194-26.4161987,39.0732422v63.974884"/>
    <ellipse class="st4" cx="142.3195801" cy="348.6151733" rx="29.6730347" ry="34.6281433"/>
    <g>
      <line class="st2" x1="183.6749573" y1="496.8868408" x2="183.6749573" y2="442.1991272"/>
      <line class="st2" x1="101.9799728" y1="496.8868408" x2="101.9799728" y2="442.1991272"/>
      <g>
        <path class="st2" d="M104.3097839,393.8380432c-15.4823151,6.2132568-26.4161987,21.3661194-26.4161987,39.0732422v63.974884"/>
        <path class="st2" d="M207.7617493,496.8861694v-63.974884c0-22.1391907-17.0923004-40.2854309-38.7964935-41.9584351-6.0450287,7.8016663-15.5029755,12.8206177-26.1375885,12.8206177-10.6345978,0-20.092514-5.0189514-26.1375809-12.8206177"/>
      </g>
    </g>
  </g>
  <g>
    <path class="st10" d="M673.2036133,632.6268311h96.8575439c0,13.3103027-9.6228638,24.6697388-22.7520752,26.8579102l-38.4398193,6.4066162v33.6555176h-61.1918945v-41.3938599c0-14.0977173,11.4284668-25.5262451,25.5262451-25.5262451v.000061Z"/>
    <rect class="st10" x="641.0657349" y="690.3681641" width="72.7506104" height="35.8560791"/>
    <rect class="st15" x="641.0657349" y="726.2241821" width="72.7506104" height="35.8560791"/>
  </g>
  <g>
    <path class="st10" d="M582.4060669,604.3299561h257.5110474c0,15.6174316-12.6793823,28.296875-28.296875,28.296875h-200.9174194c-15.6174316,0-28.296814-12.6793823-28.296814-28.296875h.000061Z"/>
    <g>
      <path class="st10" d="M784.4697266,510.3399048s-18.6967163-8.1400146-72.730835-8.1400146-72.730835,8.1400146-72.730835,8.1400146c0,0,20.4162598,30.2267456,72.730835,30.2267456s72.730835-30.2267761,72.730835-30.2267761v.0000305Z"/>
      <rect class="st11" x="660.719702" y="490.0520214" width="37.6040028" height="37.6040028" rx="10.2517392" ry="10.2517392" transform="translate(-98.0023217 168.0629543) rotate(-13.1594105)"/>
      <rect class="st7" x="686.0236029" y="471.0597029" width="37.6040345" height="37.604004" rx="10.2517395" ry="10.2517395" transform="translate(71.6902104 1069.4160144) rotate(-77.2698402)"/>
      <rect class="st9" x="675.3554922" y="504.1563759" width="37.6040044" height="37.6040349" rx="10.2517396" ry="10.2517396" transform="translate(-174.3899057 491.8855447) rotate(-34.9444041)"/>
      <rect class="st12" x="716.4498361" y="484.4675796" width="37.6040044" height="37.6040349" rx="10.2517396" ry="10.2517396" transform="translate(-155.7035586 511.873889) rotate(-34.9444041)"/>
      <rect class="st8" x="725.8709145" y="493.9559115" width="37.6040352" height="37.6040046" rx="10.2517092" ry="10.2517092" transform="translate(134.1590516 1179.6396542) rotate(-82.0767141)"/>
      <polygon class="st10" points="736.0437012 604.3299561 687.43396 604.3299561 691.6507568 578.8334961 731.8269653 578.8334961 736.0437012 604.3299561"/>
      <path class="st10" d="M784.4697266,510.3399048v4.3148804c0,40.1680908-32.5626831,72.7307739-72.7307739,72.7307739h-.0001221c-40.1680908,0-72.7307739-32.5626831-72.7307739-72.7307739v-4.3148499s18.3795776,12.323822,72.730835,12.323822,72.730835-12.323822,72.730835-12.323822v-.0000305Z"/>
    </g>
  </g>
</svg>