<?xml version="1.0" encoding="UTF-8"?>
<svg id="_レイヤー_1" data-name="レイヤー_1" xmlns="http://www.w3.org/2000/svg" width="1052.6893727" height="789.5170295" version="1.1" viewBox="0 0 1052.6893727 789.5170295">
  <!-- Generator: Adobe Illustrator 29.7.1, SVG Export Plug-In . SVG Version: 2.1.1 Build 8)  -->
  <defs>
    <style>
      .st0 {
        fill: #fb9334;
      }

      .st0, .st1, .st2, .st3, .st4, .st5, .st6, .st7, .st8, .st9 {
        stroke-linecap: round;
        stroke-linejoin: round;
      }

      .st0, .st2, .st3, .st5, .st9 {
        stroke-width: 15.1583877px;
      }

      .st0, .st5, .st8 {
        stroke: #fb9334;
      }

      .st1, .st3, .st4, .st6, .st7, .st9 {
        stroke: #1a1a1a;
      }

      .st1, .st7, .st8 {
        stroke-width: 9.7446778px;
      }

      .st1, .st10 {
        fill: #1a1a1a;
      }

      .st11, .st3 {
        fill: #fff;
      }

      .st2 {
        stroke: #fff;
      }

      .st2, .st4, .st5, .st6, .st7, .st8, .st9 {
        fill: none;
      }

      .st4 {
        stroke-width: 8.1539286px;
      }

      .st6 {
        stroke-width: 12.9929037px;
      }
    </style>
  </defs>
  <path class="st6" d="M352.1987863,184.9038636h-145.6097992c-22.3334144,0-40.4381648,18.1047504-40.4381648,40.4381648v81.0066621c0,22.3332922,18.1047504,40.4380426,40.4381648,40.4380426h11.3639773v45.7703197l45.5592468-45.7703197h88.6865751c22.3333533,0,40.4381037-18.1047504,40.4381037-40.4380426v-81.0066621c0-22.3334144-18.1047504-40.4381648-40.4381037-40.4381648Z"/>
  <g>
    <circle class="st8" cx="280.8883758" cy="264.3507299" r="50.3953834"/>
    <g>
      <path class="st8" d="M331.2837592,264.3507299h-100.7907669s9.7501809,27.2148722,50.3953834,27.2148722,50.3953834-27.2148722,50.3953834-27.2148722Z"/>
      <path class="st8" d="M331.2837592,264.3507299h-100.7907669s9.7501809-27.2148722,50.3953834-27.2148722c40.6452025,0,50.3953834,27.2148722,50.3953834,27.2148722Z"/>
    </g>
    <g>
      <path class="st8" d="M280.8883758,314.7461133v-100.7907669s-27.2148722,9.7501809-27.2148722,50.3953834,27.2148722,50.3953834,27.2148722,50.3953834Z"/>
      <path class="st8" d="M280.8883758,314.7461133v-100.7907669s27.2148722,9.7501809,27.2148722,50.3953834c0,40.6452025-27.2148722,50.3953834-27.2148722,50.3953834Z"/>
    </g>
  </g>
  <g>
    <g>
      <path class="st11" d="M681.6272071,687.3325693v-143.1919191c0-49.5530956-38.2568706-90.1689808-86.8363442-93.9135403-13.530299,17.462117-34.6995696,28.6957955-58.5024953,28.6957955s-44.9721201-11.2336785-58.5024953-28.6957955l-27.7102372,6.4577578c-34.653323,13.9068039-59.1261069,47.8227481-59.1261069,87.4557825v143.1919191"/>
      <ellipse class="st3" cx="535.1511494" cy="355.4646963" rx="66.4157382" ry="77.5065303"/>
      <g>
        <rect class="st0" x="444.8609224" y="524.2676053" width="182.8539734" height="163.0664446"/>
        <g>
          <path class="st9" d="M432.8924473,465.7491043c-25.2870649,16.8898496-41.9429192,45.6952097-41.9429192,78.391546v143.1919191"/>
          <path class="st9" d="M681.6272071,687.3325693v-143.1919191c0-49.5530956-38.2568706-90.1689808-86.8363442-93.9135403-13.530299,17.462117-34.6995696,28.6957955-58.5024953,28.6957955s-44.9721201-11.2336785-58.5024953-28.6957955"/>
        </g>
      </g>
    </g>
    <line class="st5" x1="459.1605167" y1="450.22711" x2="459.1605167" y2="552.3403008"/>
    <line class="st5" x1="615.3078197" y1="450.22711" x2="615.3078197" y2="552.3403008"/>
    <path class="st2" d="M553.7033442,552.3403008h52.006391v31.6766462c0,14.3515399-11.6516295,26.0031694-26.0031694,26.0031694h-.000052c-14.35154,0-26.0031696-11.6516296-26.0031696-26.0031696v-31.676646h0Z"/>
  </g>
  <rect class="st1" x="786.3377478" y="213.9553465" width="10.378076" height="16.9632105"/>
  <path class="st1" d="M791.5267696,194.0543062h.0000324c8.9735694,0,16.2589693,7.2853999,16.2589693,16.2589693v4.1421602h-32.5179712v-4.1421601c0-8.9735695,7.2853999-16.2589695,16.2589695-16.2589695Z"/>
  <rect class="st7" x="697.4475678" y="343.0604251" width="188.1584359" height="21.878887"/>
  <rect class="st1" x="711.9615366" y="326.8936787" width="159.1304983" height="13.0977142"/>
  <path class="st8" d="M885.6060037,324.997775c0-51.9585174-42.1207006-94.079218-94.079218-94.079218s-94.079218,42.1207006-94.079218,94.079218h188.1584359Z"/>
  <path class="st4" d="M770.8867665,250.2649651s-26.9578551,7.3523755-42.2568642,34.9841573"/>
  <circle class="st10" cx="723.6761913" cy="295.531623" r="3.9949488"/>
  <polyline class="st8" points="879.9205648 153.1988102 852.3754215 185.553423 875.5483198 185.553423 843.6309315 217.9465917"/>
  <polyline class="st8" points="906.8949365 175.8722255 877.7344423 205.3910139 893.5276752 214.4866154 864.1804829 234.9098023"/>
</svg>