<?xml version="1.0" encoding="UTF-8"?>
<svg id="_レイヤー_1" data-name="レイヤー_1" xmlns="http://www.w3.org/2000/svg" width="1052.6893727" height="789.5170295" version="1.1" viewBox="0 0 1052.6893727 789.5170295">
  <!-- Generator: Adobe Illustrator 29.7.1, SVG Export Plug-In . SVG Version: 2.1.1 Build 8)  -->
  <defs>
    <style>
      .st0, .st1 {
        fill: #fb9334;
      }

      .st2, .st3 {
        fill: #fff;
      }

      .st3, .st4, .st5, .st1 {
        stroke-linecap: round;
        stroke-linejoin: round;
      }

      .st3, .st4, .st1 {
        stroke: #1a1a1a;
      }

      .st3, .st1 {
        stroke-width: 12px;
      }

      .st4 {
        stroke-width: 11.7755297px;
      }

      .st4, .st5 {
        fill: none;
      }

      .st5 {
        stroke: #fb9334;
        stroke-width: 12.2577349px;
      }

      .st6 {
        fill: #1a1a1a;
      }
    </style>
  </defs>
  <g>
    <circle class="st0" cx="735.4626257" cy="430.0136" r="39.0369584"/>
    <circle class="st0" cx="782.9545935" cy="396.1162642" r="50.447567"/>
    <circle class="st0" cx="835.0275276" cy="407.5268728" r="39.0369584"/>
    <circle class="st0" cx="878.5273964" cy="438.6485032" r="39.0369584"/>
    <rect class="st6" x="752.8351041" y="375.3817125" width="8.475086" height="8.475086" transform="translate(-81.4355483 260.5655771) rotate(-18.5495814)"/>
    <rect class="st6" x="786.001789" y="364.2523715" width="8.475086" height="8.475086" transform="translate(78.9147767 -135.7723149) rotate(10.3333378)"/>
    <rect class="st6" x="752.8351041" y="416.5271911" width="8.475086" height="8.475086" transform="translate(-94.524961 262.7031375) rotate(-18.5495814)"/>
    <rect class="st6" x="864.7082496" y="416.5271911" width="8.475086" height="8.475086" transform="translate(70.0799476 962.9114979) rotate(-60)"/>
    <rect class="st6" x="891.7490073" y="416.5271911" width="8.475086" height="8.475086" transform="translate(174.7492249 -257.2113571) rotate(18.0738337)"/>
    <rect class="st6" x="811.8892808" y="390.4653703" width="8.475086" height="8.475086" transform="translate(194.245116 -264.9307152) rotate(20.8776025)"/>
    <rect class="st6" x="843.2654966" y="384.9289669" width="8.475086" height="8.475086" transform="translate(134.9824002 990.8527345) rotate(-64.8435367)"/>
    <rect class="st6" x="824.9274115" y="415.0305322" width="8.475086" height="8.475086" transform="translate(362.5957658 -384.2326608) rotate(33.0340407)"/>
    <rect class="st6" x="778.7170505" y="404.6443287" width="8.475086" height="8.475086" transform="translate(222.2007587 -273.5823525) rotate(23.0165236)"/>
    <rect class="st6" x="725.6680167" y="403.2893298" width="8.475086" height="8.475086" transform="translate(21.6067687 -36.4923845) rotate(2.9069737)"/>
  </g>
  <g>
    <path class="st2" d="M268.2477711,472.4814209H126.8590078v-42.8756503h183.7527869c9.4224396,0,17.0608361,7.6383965,17.0608361,17.0608361v25.8148141h-28.7097142"/>
    <g>
      <line class="st3" x1="310.6117947" y1="614.1241941" x2="310.6117947" y2="472.4814209"/>
      <line class="st3" x1="126.8590078" y1="614.1241941" x2="126.8590078" y2="252.7437132"/>
      <path class="st1" d="M268.2477711,472.4814209H126.8590078v-42.8756503h183.7527869c9.4224396,0,17.0608361,7.6383965,17.0608361,17.0608361v25.8148141h-28.7097142"/>
    </g>
    <g>
      <line class="st4" x1="310.6117947" y1="614.1241941" x2="310.6117947" y2="472.4814209"/>
      <line class="st4" x1="126.8590078" y1="614.1241941" x2="126.8590078" y2="252.7437132"/>
      <path class="st4" d="M268.2477711,472.4814209H126.8590078v-42.8756503h183.7527869c9.4224396,0,17.0608361,7.6383965,17.0608361,17.0608361v25.8148141h-28.7097142"/>
    </g>
  </g>
  <g>
    <line class="st5" x1="703.2696268" y1="360.4224755" x2="655.3064279" y2="301.5015255"/>
    <line class="st5" x1="807.2955475" y1="308.582833" x2="807.2612462" y2="232.6081949"/>
    <line class="st5" x1="753.3764293" y1="321.7238916" x2="720.4328981" y2="253.2631689"/>
  </g>
  <g>
    <line class="st5" x1="911.3214683" y1="360.4224755" x2="959.2846671" y2="301.5015255"/>
    <line class="st5" x1="807.2955475" y1="308.582833" x2="807.3298489" y2="232.6081949"/>
    <line class="st5" x1="861.2146658" y1="321.7238916" x2="894.158197" y2="253.2631689"/>
  </g>
  <path class="st6" d="M338.8031702,375.5013059c-40.7126795,24.2073452-94.1427571,18.797012-129.1707685-16.2309995-41.4266633-41.4266633-41.4266633-108.5925553,0-150.0192186,41.4266633-41.4266633,108.5925553-41.4266633,150.0192186,0,41.4266633,41.4266633,41.4266633,108.5925553,0,150.0192186"/>
  <path class="st0" d="M252.7882528,323.8134766v-14.4121094h21.1259766v-9.0078125h-21.1259766v-14.4121094h17.6875l-25.3847656-56.0097656h22.109375l17.8505859,45.3652344,17.1962891-45.3652344h21.9453125l-25.3847656,56.0097656h17.6875v14.4121094h-21.1259766v9.0078125h21.1259766v14.4121094h-21.1259766v19.1611328h-21.4550781v-19.1611328h-21.1259766Z"/>
  <g>
    <polygon class="st3" points="891.5224886 532.6183717 723.0127794 532.6183717 698.007923 443.5049674 916.5271797 443.5049674 891.5224886 532.6183717"/>
    <polygon class="st3" points="843.0979256 568.4946675 774.6986585 568.4946675 780.6321195 532.6183717 837.1644645 532.6183717 843.0979256 568.4946675"/>
  </g>
  <polygon class="st0" points="498.7898088 339.6487597 553.8995638 394.7585147 498.7898088 449.8682697 498.7898088 339.6487597"/>
  <line class="st3" x1="126.8590078" y1="543.3028075" x2="310.6117947" y2="543.3028075"/>
</svg>