<?xml version="1.0" encoding="UTF-8"?>
<svg id="_レイヤー_1" xmlns="http://www.w3.org/2000/svg" width="371.3653973mm" height="278.5240588mm" version="1.1" viewBox="0 0 1052.6893311 789.5170288">
  <!-- Generator: Adobe Illustrator 29.7.1, SVG Export Plug-In . SVG Version: 2.1.1 Build 8)  -->
  <defs>
    <style>
      .st0 {
        stroke-width: 12px;
      }

      .st0, .st1 {
        fill: none;
      }

      .st0, .st1, .st2 {
        stroke: #1a1a1a;
        stroke-linecap: round;
        stroke-linejoin: round;
      }

      .st3 {
        fill: #fb9334;
      }

      .st4, .st2 {
        fill: #fff;
      }

      .st1, .st2 {
        stroke-width: .25px;
      }

      .st5 {
        fill: #1a1a1a;
      }
    </style>
  </defs>
  <path class="st4" d="M441.4212036,440.7175903v-87.5639038c0-30.3024292-23.3946228-55.1396179-53.1016541-57.4294739-8.2740173,10.6783447-21.2192688,17.5478821-35.775116,17.5478821s-27.5011292-6.8695679-35.775116-17.5478821c-29.7070312,2.289856-53.1016541,27.1270447-53.1016541,57.4294739v87.5639038h177.75354Z"/>
  <path class="st4" d="M776.2526855,440.7175903v-87.5639038c0-30.3024292-23.3946533-55.1396179-53.1016846-57.4294739-8.2740479,10.6783447-21.2192993,17.5478821-35.7750854,17.5478821s-27.5011597-6.8695679-35.7750854-17.5478821c-29.7070312,2.289856-53.1016846,27.1270447-53.1016846,57.4294739v87.5639038h177.75354Z"/>
  <path class="st4" d="M634.5458984,434.4816895v-114.6226807c0-39.6664124-30.6239624-72.1787262-69.5109863-75.176178-10.8308105,13.9781189-27.7764282,22.9704895-46.8302612,22.9704895s-35.9994812-8.9923706-46.8302612-22.9704895c-38.8870239,2.9974518-69.5109863,35.5097656-69.5109863,75.176178v114.6226807h232.6824951Z"/>
  <g>
    <g>
      <path class="st4" d="M740.0961914,299.6723328c21.190979,8.5042114,36.1564331,29.2442932,36.1564331,53.4804688v87.5639038"/>
      <path class="st4" d="M598.4991455,440.7166748v-87.5639038c0-30.3024292,23.3946533-55.1396179,53.1016846-57.4294739,8.2739868,10.6783447,21.2192993,17.5478821,35.7750854,17.5478821s27.5010986-6.8695679,35.7750854-17.5478821"/>
      <ellipse class="st4" cx="688.0713501" cy="237.7747459" rx="40.6141968" ry="47.3963356"/>
    </g>
    <g>
      <path class="st2" d="M740.0961914,299.6723328c21.190979,8.5042114,36.1564331,29.2442932,36.1564331,53.4804688v87.5639038"/>
      <path class="st2" d="M598.4991455,440.7166748v-87.5639038c0-30.3024292,23.3946533-55.1396179,53.1016846-57.4294739,8.2739868,10.6783447,21.2192993,17.5478821,35.7750854,17.5478821s27.5010986-6.8695679,35.7750854-17.5478821"/>
      <line class="st1" x1="631.4672852" y1="440.7175903" x2="631.4672852" y2="365.8652344"/>
      <line class="st1" x1="743.2850952" y1="440.7175903" x2="743.2850952" y2="365.8652344"/>
      <ellipse class="st2" cx="688.0713501" cy="237.7747459" rx="40.6141968" ry="47.3963356"/>
    </g>
    <g>
      <path class="st0" d="M740.0961914,299.6723328c21.190979,8.5042114,36.1564331,29.2442932,36.1564331,53.4804688v87.5639038"/>
      <path class="st0" d="M598.4991455,440.7166748v-87.5639038c0-30.3024292,23.3946533-55.1396179,53.1016846-57.4294739,8.2739868,10.6783447,21.2192993,17.5478821,35.7750854,17.5478821s27.5010986-6.8695679,35.7750854-17.5478821"/>
      <line class="st0" x1="631.4672852" y1="440.7175903" x2="631.4672852" y2="365.8652344"/>
      <line class="st0" x1="743.2850952" y1="440.7175903" x2="743.2850952" y2="365.8652344"/>
      <ellipse class="st0" cx="688.0713501" cy="237.7747459" rx="40.6141968" ry="47.3963356"/>
    </g>
  </g>
  <g>
    <g>
      <path class="st4" d="M405.26474,299.6723328c21.1910095,8.5042114,36.1564636,29.2442932,36.1564636,53.4804688v87.5639038"/>
      <path class="st4" d="M263.6676636,440.7166748v-87.5639038c0-30.3024292,23.3946228-55.1396179,53.1016541-57.4294739,8.2739563,10.6783447,21.2192688,17.5478821,35.775116,17.5478821s27.5010986-6.8695679,35.775116-17.5478821"/>
      <ellipse class="st4" cx="353.2398682" cy="237.7747459" rx="40.6141663" ry="47.3963356"/>
    </g>
    <g>
      <path class="st2" d="M405.26474,299.6723328c21.1910095,8.5042114,36.1564636,29.2442932,36.1564636,53.4804688v87.5639038"/>
      <path class="st2" d="M263.6676636,440.7166748v-87.5639038c0-30.3024292,23.3946228-55.1396179,53.1016541-57.4294739,8.2739563,10.6783447,21.2192688,17.5478821,35.775116,17.5478821s27.5010986-6.8695679,35.775116-17.5478821"/>
      <line class="st1" x1="296.6358032" y1="440.7175903" x2="296.6358032" y2="365.8652344"/>
      <line class="st1" x1="408.4536133" y1="440.7175903" x2="408.4536133" y2="365.8652344"/>
      <ellipse class="st2" cx="353.2398682" cy="237.7747459" rx="40.6141663" ry="47.3963356"/>
    </g>
    <g>
      <path class="st0" d="M405.26474,299.6723328c21.1910095,8.5042114,36.1564636,29.2442932,36.1564636,53.4804688v87.5639038"/>
      <path class="st0" d="M263.6676636,440.7166748v-87.5639038c0-30.3024292,23.3946228-55.1396179,53.1016541-57.4294739,8.2739563,10.6783447,21.2192688,17.5478821,35.775116,17.5478821s27.5010986-6.8695679,35.775116-17.5478821"/>
      <line class="st0" x1="296.6358032" y1="440.7175903" x2="296.6358032" y2="365.8652344"/>
      <line class="st0" x1="408.4536133" y1="440.7175903" x2="408.4536133" y2="365.8652344"/>
      <ellipse class="st0" cx="353.2398682" cy="237.7747459" rx="40.6141663" ry="47.3963356"/>
    </g>
  </g>
  <rect class="st4" x="423.9764709" y="310.6328125" width="196.2186584" height="118.020813"/>
  <g>
    <g>
      <path class="st4" d="M587.2164307,249.8509521c27.7393799,11.1321716,47.3294678,38.281311,47.3294678,70.0068665v114.6227112"/>
      <path class="st4" d="M401.8633423,434.4804993v-114.6227112c0-39.6664124,30.6239624-72.1787415,69.5110168-75.1761932,10.83078,13.9781342,27.7764282,22.9705048,46.8302307,22.9705048,19.053833,0,35.9993896-8.9923706,46.8302612-22.9704895"/>
      <ellipse class="st4" cx="519.1149292" cy="168.8259277" rx="53.1646729" ry="62.0426636"/>
    </g>
    <g>
      <path class="st2" d="M587.2164307,249.8509521c27.7393799,11.1321716,47.3294678,38.281311,47.3294678,70.0068665v114.6227112"/>
      <path class="st2" d="M401.8633423,434.4804993v-114.6227112c0-39.6664124,30.6239624-72.1787415,69.5110168-75.1761932,10.83078,13.9781342,27.7764282,22.9705048,46.8302307,22.9705048,19.053833,0,35.9993896-8.9923706,46.8302612-22.9704895"/>
      <line class="st1" x1="445.0192261" y1="434.4816895" x2="445.0192261" y2="336.4986572"/>
      <line class="st1" x1="591.3907471" y1="434.4816895" x2="591.3907471" y2="336.4986572"/>
      <ellipse class="st2" cx="519.1149292" cy="168.8259277" rx="53.1646729" ry="62.0426636"/>
    </g>
    <g>
      <path class="st0" d="M587.2164307,249.8509521c27.7393799,11.1321716,47.3294678,38.281311,47.3294678,70.0068665v114.6227112"/>
      <path class="st0" d="M401.8633423,434.4804993v-114.6227112c0-39.6664124,30.6239624-72.1787415,69.5110168-75.1761932,10.83078,13.9781342,27.7764282,22.9705048,46.8302307,22.9705048,19.053833,0,35.9993896-8.9923706,46.8302612-22.9704895"/>
      <line class="st0" x1="445.0192261" y1="434.4816895" x2="445.0192261" y2="336.4986572"/>
      <line class="st0" x1="591.3907471" y1="434.4816895" x2="591.3907471" y2="336.4986572"/>
      <ellipse class="st0" cx="519.1149292" cy="168.8259277" rx="53.1646729" ry="62.0426636"/>
    </g>
  </g>
  <path class="st5" d="M455.9332275,670.5632935c-69.3318176-27.9499512-113.6500854-100.1953735-103.1867676-177.6724243,12.3746643-91.6299438,96.6870728-155.8790894,188.3170166-143.5043945,91.6299438,12.3746643,155.8790894,96.6870728,143.5043945,188.3170166-12.3746338,91.6299438-96.6870728,155.8790894-188.3170166,143.5043945"/>
  <path class="st3" d="M472.7113953,577.7200928v-22.7470703h33.3447266v-14.2167969h-33.3447266v-22.7460938h27.9165039l-40.0649414-88.4013672h34.8950195l28.1748352,71.5996094,27.140625-71.5996094h34.637207l-40.0649414,88.4013672h27.9160156v22.7460938h-33.3442383v14.2167969h33.3442383v22.7470703h-33.3442383v30.2421875h-33.8613281v-30.2421875h-33.3447571Z"/>
</svg>