<?xml version="1.0" encoding="UTF-8"?>
<svg id="_レイヤー_1" data-name="レイヤー_1" xmlns="http://www.w3.org/2000/svg" width="1052.6893727" height="789.5170295" version="1.1" viewBox="0 0 1052.6893727 789.5170295">
  <!-- Generator: Adobe Illustrator 29.7.1, SVG Export Plug-In . SVG Version: 2.1.1 Build 8)  -->
  <defs>
    <style>
      .st0, .st1 {
        fill: #fb9334;
      }

      .st2, .st3 {
        fill: #fff;
      }

      .st3, .st4, .st1 {
        stroke: #1a1a1a;
        stroke-linecap: round;
        stroke-linejoin: round;
        stroke-width: 12px;
      }

      .st4 {
        fill: none;
      }

      .st5 {
        fill: #1a1a1a;
      }
    </style>
  </defs>
  <g>
    <path class="st2" d="M366.167187,472.4814209h-141.3887632v-42.8756503h183.7527869c9.4224396,0,17.0608361,7.6383965,17.0608361,17.0608361v25.8148141h-28.7097142"/>
    <g>
      <line class="st3" x1="408.5312107" y1="614.1241941" x2="408.5312107" y2="472.4814209"/>
      <line class="st3" x1="224.7784238" y1="614.1241941" x2="224.7784238" y2="252.7437132"/>
      <path class="st1" d="M366.167187,472.4814209h-141.3887632v-42.8756503h183.7527869c9.4224396,0,17.0608361,7.6383965,17.0608361,17.0608361v25.8148141h-28.7097142"/>
    </g>
    <g>
      <line class="st4" x1="408.5312107" y1="614.1241941" x2="408.5312107" y2="472.4814209"/>
      <line class="st4" x1="224.7784238" y1="614.1241941" x2="224.7784238" y2="252.7437132"/>
      <path class="st4" d="M366.167187,472.4814209h-141.3887632v-42.8756503h183.7527869c9.4224396,0,17.0608361,7.6383965,17.0608361,17.0608361v25.8148141h-28.7097142"/>
    </g>
  </g>
  <g>
    <polyline class="st1" points="713.1854351 348.1839172 333.6793949 348.1839172 333.6793949 304.3770024 741.2401556 304.3770024 741.2401556 348.1839172"/>
    <line class="st3" x1="537.4597752" y1="348.1839172" x2="537.4597752" y2="621.9734235"/>
    <line class="st3" x1="492.0883278" y1="621.9734235" x2="582.8312227" y2="621.9734235"/>
  </g>
  <line class="st3" x1="224.7784238" y1="543.3028075" x2="408.5312107" y2="543.3028075"/>
  <path class="st5" d="M775.9925013,385.7549578c-40.7126795,24.2073452-94.1427571,18.797012-129.1707685-16.2309995-41.4266633-41.4266633-41.4266633-108.5925553,0-150.0192186,41.4266633-41.4266633,108.5925553-41.4266633,150.0192186,0,41.4266633,41.4266633,41.4266633,108.5925553,0,150.0192186"/>
  <path class="st0" d="M689.977706,334.0667842v-14.4121094h21.1259766v-9.0078125h-21.1259766v-14.4121094h17.6875l-25.3847656-56.0097656h22.109375l17.8505859,45.3652344,17.1962891-45.3652344h21.9453125l-25.3847656,56.0097656h17.6875v14.4121094h-21.1259766v9.0078125h21.1259766v14.4121094h-21.1259766v19.1611328h-21.4550781v-19.1611328h-21.1259766Z"/>
</svg>