<?xml version="1.0" encoding="UTF-8"?>
<svg id="_レイヤー_1" data-name="レイヤー_1" xmlns="http://www.w3.org/2000/svg" width="1052.6893727" height="789.5170295" version="1.1" viewBox="0 0 1052.6893727 789.5170295">
  <!-- Generator: Adobe Illustrator 29.7.1, SVG Export Plug-In . SVG Version: 2.1.1 Build 8)  -->
  <defs>
    <style>
      .st0 {
        fill: #fb9334;
      }

      .st1 {
        fill: none;
        stroke: #fb9334;
        stroke-width: 19.9296026px;
      }

      .st1, .st2 {
        stroke-linecap: round;
        stroke-linejoin: round;
      }

      .st2 {
        fill: #fff;
        stroke: #1a1a1a;
        stroke-width: 10.8278939px;
      }

      .st3 {
        fill: #1a1a1a;
      }
    </style>
  </defs>
  <rect class="st3" x="405.5357916" y="359.9131332" width="60.3012843" height="220.3247202"/>
  <rect class="st3" x="482.9008532" y="307.8313496" width="60.3012843" height="272.4065038"/>
  <rect class="st3" x="560.2659147" y="380.4297614" width="60.3012843" height="199.808092"/>
  <rect class="st3" x="637.6309762" y="428.4279323" width="60.3012843" height="151.8099211"/>
  <rect class="st3" x="714.9960377" y="320.4878724" width="60.3012843" height="259.749981"/>
  <path class="st0" d="M748.8204794,277.6355215v-13.8603516h20.3173828v-8.6621094h-20.3173828v-13.8603516h17.0107422l-24.4130859-53.8652344h21.2626953l17.1679688,43.6279297,16.5371094-43.6279297h21.1054688l-24.4130859,53.8652344h17.0107422v13.8603516h-20.3183594v8.6621094h20.3183594v13.8603516h-20.3183594v18.4277344h-20.6328125v-18.4277344h-20.3173828Z"/>
  <path class="st2" d="M447.4816599,482.8551264s-23.7386338-10.3351559-92.3442244-10.3351559-92.3442244,10.3351559-92.3442244,10.3351559c0,0,25.9219014,38.3780464,92.3442244,38.3780464s92.3442244-38.3780464,92.3442244-38.3780464Z"/>
  <polygon class="st2" points="385.9966028 602.1915405 324.2782682 602.1915405 329.6321755 569.8194797 380.6426956 569.8194797 385.9966028 602.1915405"/>
  <path class="st2" d="M447.4816599,482.8551264v5.4784412c0,51.0002558-41.3438762,92.344132-92.344132,92.344132h-.0001847c-51.0002558,0-92.344132-41.3438762-92.344132-92.344132v-5.4784412s23.3360138,15.6472068,92.3442244,15.6472068,92.3442244-15.6472068,92.3442244-15.6472068Z"/>
  <polygon class="st0" points="267.2720472 637.8580778 441.5128743 637.8580778 441.5128743 623.6183157 267.2720472 632.5289036 267.2720472 637.8580778"/>
  <polygon class="st0" points="267.2720472 640.6826006 441.5128743 640.6826006 441.5128743 654.9223627 267.2720472 646.0117749 267.2720472 640.6826006"/>
  <path class="st1" d="M412.8210009,314.6970557s177.595556,121.7976328,313.4119816-33.2398342v45.5199906"/>
  <line class="st1" x1="724.9355039" y1="281.4572215" x2="677.8979949" y2="281.4572215"/>
</svg>