<?xml version="1.0" encoding="UTF-8"?>
<svg id="_レイヤー_1" data-name="レイヤー_1" xmlns="http://www.w3.org/2000/svg" width="1052.6893727" height="789.5170295" version="1.1" viewBox="0 0 1052.6893727 789.5170295">
  <!-- Generator: Adobe Illustrator 29.7.1, SVG Export Plug-In . SVG Version: 2.1.1 Build 8)  -->
  <defs>
    <style>
      .st0, .st1, .st2 {
        stroke: #fb9334;
      }

      .st0, .st1, .st2, .st3, .st4 {
        stroke-width: 16.3544202px;
      }

      .st0, .st1, .st2, .st3, .st4, .st5 {
        stroke-linejoin: round;
      }

      .st0, .st2, .st3, .st4, .st5 {
        stroke-linecap: round;
      }

      .st0, .st4, .st5 {
        fill: #fff;
      }

      .st6, .st1 {
        fill: #fb9334;
      }

      .st2, .st3 {
        fill: none;
      }

      .st3, .st4, .st5 {
        stroke: #1a1a1a;
      }

      .st5 {
        stroke-width: 9.8126521px;
      }
    </style>
  </defs>
  <path class="st3" d="M501.2010751,165.1574076h-237.9836693c-36.5015812,0-66.0918625,29.5902814-66.0918625,66.0918625v132.3967398c0,36.5013815,29.5902814,66.0916629,66.0918625,66.0916629h18.5732075v74.8067004l74.4617243-74.8067004h144.9487376c36.5014814,0,66.0917627-29.5902814,66.0917627-66.0916629v-132.3967398c0-36.5015812-29.5902814-66.0918625-66.0917627-66.0918625Z"/>
  <path class="st4" d="M555.8806732,346.1100173h237.9836693c36.5015812,0,66.0918625,29.5902814,66.0918625,66.0918625v132.3967398c0,36.5013815-29.5902814,66.0916629-66.0918625,66.0916629h-18.5732075s0,74.8067004,0,74.8067004l-74.4617243-74.8067004h-144.9487376c-36.5014814,0-66.0917627-29.5902814-66.0917627-66.0916629v-132.3967398c0-36.5015812,29.5902814-66.0918625,66.0917627-66.0918625Z"/>
  <polyline class="st2" points="593.1272354 466.6366425 661.7081671 548.1171795 799.5461578 351.5002861"/>
  <path class="st1" d="M814.2636712,330.6693774s-23.2622713,31.8199336-23.2622713,81.4157566c0,48.1877669-29.9152426,102.0060731-93.7488047,90.035182l117.011076-171.4509386Z"/>
  <path class="st1" d="M814.2636712,330.6693774s-29.6376509,27.9606509-84.0735841,42.1826515c-32.6835849,8.5389546-68.48192,30.425552-52.4992672,103.0337556l136.5728514-145.2164071Z"/>
  <path class="st0" d="M476.7095094,323.694167h-170.8375265l110.7676801-191.8476261,110.7868706,191.8476261h-21.1398983"/>
  <g>
    <path class="st5" d="M381.1876904,263.9966228s-17.5245151-7.6296975-68.1710567-7.6296975-68.1710567,7.6296975-68.1710567,7.6296975c0,0,19.1362635,28.3317338,68.1710567,28.3317338s68.1710567-28.3317338,68.1710567-28.3317338Z"/>
    <polygon class="st5" points="335.7977233 352.0940594 290.2355442 352.0940594 294.1879464 328.1961101 331.845321 328.1961101 335.7977233 352.0940594"/>
    <path class="st5" d="M381.1876904,263.9966228v4.0443366c0,37.6497973-30.5211912,68.1709885-68.1709885,68.1709885h-.0001363c-37.6497973,0-68.1709885-30.5211912-68.1709885-68.1709885v-4.0443366s17.2272899,11.5512002,68.1710567,11.5512002,68.1710567-11.5512002,68.1710567-11.5512002Z"/>
    <polygon class="st6" points="248.1519775 378.4240822 376.781368 378.4240822 376.781368 367.9118966 248.1519775 374.4899387 248.1519775 378.4240822"/>
    <polygon class="st6" points="248.1519775 380.509223 376.781368 380.509223 376.781368 391.0214086 248.1519775 384.4433666 248.1519775 380.509223"/>
  </g>
  <path class="st6" d="M426.1954794,199.3022236l-3.2490234,62.2802734h-12.5917969l-3.2490234-62.2802734h19.0898438ZM425.5187216,275.1215596v17.6005859h-17.7363281v-17.6005859h17.7363281Z"/>
</svg>