<?xml version="1.0" encoding="UTF-8"?>
<svg id="_レイヤー_1" data-name="レイヤー_1" xmlns="http://www.w3.org/2000/svg" width="1052.6893727" height="789.5170295" version="1.1" viewBox="0 0 1052.6893727 789.5170295">
  <!-- Generator: Adobe Illustrator 29.7.1, SVG Export Plug-In . SVG Version: 2.1.1 Build 8)  -->
  <defs>
    <style>
      .st0, .st1, .st2, .st3, .st4, .st5, .st6 {
        stroke-linecap: round;
        stroke-linejoin: round;
      }

      .st0, .st2, .st3, .st4, .st5, .st6 {
        stroke: #1a1a1a;
      }

      .st0, .st2, .st6 {
        stroke-width: 5.1978074px;
      }

      .st0, .st7 {
        fill: #1a1a1a;
      }

      .st1 {
        stroke: #fb9334;
        stroke-width: 24.2564347px;
      }

      .st1, .st2, .st3 {
        fill: none;
      }

      .st3, .st4 {
        stroke-width: 15.5934223px;
      }

      .st4, .st5, .st6 {
        fill: #fff;
      }

      .st5 {
        stroke-width: 7.7967111px;
      }
    </style>
  </defs>
  <rect class="st4" x="398.2212211" y="331.0698198" width="240.2983003" height="246.5580965" transform="translate(1036.7407424 908.697736) rotate(-180)"/>
  <path class="st3" d="M443.0950867,370.7458353v-83.755116c0-41.825284,33.9060919-75.731376,75.731376-75.731376h.0001515c41.825284,0,75.7313759,33.9060919,75.7313759,75.731376v83.755116"/>
  <path class="st5" d="M684.6446831,198.2156791h-85.8344483s-22.8677692-11.1009338-22.8677692-11.1009338c-7.9614689-3.8646757-17.4018028-3.0476365-24.5806892,2.1276721l-42.601679,30.7113102c-4.859029,3.5028663-5.7286035,10.391433-1.8923714,14.9918387v.0000692c3.4490933,4.1362404,9.497775,4.9276813,13.8949917,1.818044l10.2834025-7.2723145-6.438658,7.3014502c-4.7732134,5.4128852-4.4931364,13.6100007.6384262,18.6843989l21.834107,21.5906395c3.2274953,3.1915081,7.8332992,4.5644877,12.2814516,3.6612098l33.8594961-6.8758328c2.9479719-.5987019,5.6145519-2.1568078,7.583396-4.4310584l19.8988971-22.9856266h63.9414469s0-48.2208665,0-48.2208665Z"/>
  <polygon class="st7" points="776.5617849 261.8333783 644.3239667 261.8333783 644.3239667 186.6400607 725.2972404 186.6400607 776.5617849 261.8333783"/>
  <line class="st5" x1="526.223818" y1="255.427395" x2="543.782705" y2="240.6608686"/>
  <line class="st5" x1="547.371382" y1="276.1874757" x2="564.9302691" y2="261.4209493"/>
  <line class="st5" x1="536.7976" y1="264.7640549" x2="554.356487" y2="249.9975285"/>
  <g>
    <path class="st7" d="M527.321176,520.7391535h14.4490485c1.8184174,0,3.2947417,1.4763242,3.2947417,3.2947417v14.3170596h-21.0385318v-14.3170596c0-1.8184174,1.4763242-3.2947417,3.2947417-3.2947417Z" transform="translate(576.3195544 -221.7285413) rotate(48.451857)"/>
    <path class="st2" d="M548.978483,528.2054379c-.5509699-4.1816858.9175292-8.553412,4.3118302-11.5614622,2.003956-1.7761713,4.3998203-2.8230929,6.8665369-3.1712208-.2068463-4.6182991-4.516145-8.388063-9.4747465-7.3754043l-27.3883158,5.595426c-5.9621658,1.2178131-8.3700855,8.4337468-4.3338325,12.9877502l18.5415108,20.9219356c4.0360415,4.5544263,11.488643,3.0316312,13.4145558-2.7410312l2.2296258-6.6825325c-.3377644-.309212-.6638964-.6370359-.9741659-.9872788"/>
  </g>
  <g>
    <path class="st7" d="M586.6033497,492.7018078h14.4490485c1.8184174,0,3.2947417,1.4763242,3.2947417,3.2947417v14.3170596h-21.0385318v-14.3170596c0-1.8184174,1.4763242-3.2947417,3.2947417-3.2947417Z" transform="translate(-163.6623792 327.2950743) rotate(-27.230185)"/>
    <path class="st2" d="M612.4848171,500.7685215c3.005222-3.4559691,2.5194354-9.1101665-1.7057338-11.8296149l-5.9234614-3.8129097c-.3830253.2508382-.78149.4856024-1.1975091.7000627-6.4524212,3.3201163-14.3747627.7812785-17.6950905-5.6711427-1.2252156-2.3810593-1.6473682-4.961351-1.3747456-7.4375851-4.5252394-.941595-9.2442122,2.3015356-9.4891284,7.3563693l-1.3519036,27.9212941c-.2941956,6.0784904,6.1019669,10.1959592,11.5129654,7.4113591l20.5948076-10.5980138"/>
  </g>
  <g>
    <path class="st0" d="M513.4797745,382.2057059s-8.5893996,7.9867555-12.0257235,21.6803431c0,0-5.8191204-18.0673353,12.0257235-21.6803431Z"/>
    <path class="st0" d="M533.7880416,393.4703619s-8.5893996,7.9867555-12.0257235,21.6803431c0,0-5.8191204-18.0673353,12.0257235-21.6803431Z"/>
    <path class="st0" d="M554.0963087,404.7350178s-8.5893996,7.9867555-12.0257235,21.6803431c0,0-5.8191204-18.0673353,12.0257235-21.6803431Z"/>
    <path class="st2" d="M558.7879917,447.0103472c1.724206-1.4880556,3.6988494-2.6211258,5.8056911-3.3666304.2089613-2.475811.927636-4.9482381,2.2108024-7.2620406.8333073-1.5020682,1.8516765-2.8353599,3.0060398-3.9960681-2.6610844-3.740577-3.1240564-8.8182526-.7489191-13.1002678,1.6207193-2.9216516,4.2574813-4.9194742,7.2235477-5.8094633-1.6767666-5.0438358-1.72097-10.6134588.1063842-15.849336-5.6032515-3.5087737-11.6227336-7.0057034-17.9120888-10.4941732-37.100999-20.5793067-70.3392803-31.5616204-81.7027157-11.0749503-11.5610815,20.8424119,15.5508047,42.869643,52.6518037,63.4489497,8.7188479,4.8361434,17.1369438,9.2996251,25.0825502,12.9957872"/>
  </g>
  <g>
    <line class="st2" x1="454.5472976" y1="545.0891996" x2="450.5581561" y2="538.1244528"/>
    <line class="st2" x1="462.0170113" y1="510.2825441" x2="456.8372699" y2="516.4137127"/>
    <line class="st2" x1="489.8534062" y1="507.2298149" x2="484.6736648" y2="513.3609834"/>
    <line class="st2" x1="460.4717051" y1="525.6179369" x2="452.5142031" y2="526.6663221"/>
    <line class="st2" x1="474.9585517" y1="521.3986425" x2="480.6742888" y2="527.0334715"/>
    <line class="st2" x1="467.8374877" y1="532.7571102" x2="461.5919814" y2="537.7983996"/>
    <line class="st2" x1="433.8513026" y1="533.0568519" x2="441.0197745" y2="536.6671093"/>
    <line class="st2" x1="442.3121852" y1="521.0783801" x2="448.7571018" y2="516.294658"/>
    <line class="st2" x1="473.2021037" y1="508.0333722" x2="470.9555917" y2="500.327911"/>
    <line class="st2" x1="482.0107078" y1="502.3017249" x2="488.2983822" y2="497.313128"/>
    <path class="st2" d="M448.6674647,503.3636579c-1.7625356,1.7632057-4.0461355,3.0435633-6.6750678,3.5721139-1.1435768.2301113-2.2819719.302021-3.3937181.2343412-.5471487.7613975-1.1953942,1.4508853-1.9299313,2.0468904.6155688,1.0511516,1.072936,2.2190509,1.3266295,3.4804328,1.168005,5.8081943-2.3492287,11.4679161-7.9459237,13.0731959-.4581075,2.9182676-2.0564079,5.5378982-4.4040503,7.2937655,1.2802054,5.6897547,3.9689962,10.5242061,7.2702891,13.1176108,14.438424,11.3422855,37.9265866,9.8677122,54.7927056-16.3425524,16.8660132-26.2102646,19.7555169-54.2017765,19.7555169-54.2017765l-3.6670809-2.0739623s-15.7948749,18.5205724-48.4355648,22.3415191c-1.0454411.1222466-2.0535526.2732571-3.0362842.4428796"/>
    <path class="st6" d="M517.0469168,460.3538376s-9.3865739-1.8107233-10.2919057-8.8069952c-.9053319-6.9962719-10.7351587-3.1434282-6.7589977,4.3680962,3.976161,7.5115244,8.2873508,8.8861423,8.2873508,8.8861423l-8.5477234,11.1720379c-1.6152709,2.1111899-1.1046277,5.1488239,1.1121567,6.615824l.0000089.0000059c2.4679286,1.6331996,5.8136399.5380527,6.838185-2.2383335l5.1673275-14.0027966s9.4853197,3.6964803,12.1561036,2.4869594l3.8504878-5.257362-11.8129935-3.2235785Z"/>
  </g>
  <circle class="st1" cx="529.4801138" cy="387.0496177" r="276.9272362"/>
  <line class="st1" x1="725.2972404" y1="191.2324911" x2="333.6629872" y2="582.8667443"/>
</svg>