<?xml version="1.0" encoding="UTF-8"?>
<svg id="_レイヤー_1" data-name="レイヤー_1" xmlns="http://www.w3.org/2000/svg" width="1052.6893727" height="789.5170295" version="1.1" viewBox="0 0 1052.6893727 789.5170295">
  <!-- Generator: Adobe Illustrator 29.7.1, SVG Export Plug-In . SVG Version: 2.1.1 Build 8)  -->
  <defs>
    <style>
      .st0 {
        stroke-width: 10.9032249px;
      }

      .st0, .st1 {
        stroke: #1a1a1a;
      }

      .st0, .st1, .st2 {
        stroke-linecap: round;
        stroke-linejoin: round;
      }

      .st0, .st1, .st3 {
        fill: #1a1a1a;
      }

      .st1 {
        stroke-width: 13.496771px;
      }

      .st4 {
        fill: #fb9334;
      }

      .st2 {
        fill: none;
        stroke: #fb9334;
        stroke-width: 20px;
      }
    </style>
  </defs>
  <path class="st3" d="M668.2496063,338.2178402s-82.9619867-58.6195388-148.0408557,0c-65.078869,58.6195388-153.8569666,0-153.8569666,0l37.8982577,344.4249374h230.5489912l33.4505734-344.4249374Z"/>
  <polyline class="st2" points="682.1722987 232.2811604 634.7990328 682.6427776 404.2500416 682.6427776 356.8767416 232.2811604"/>
  <path class="st4" d="M479.267745,569.3883719v-20.5009766h30.0537109v-12.8134766h-30.0537109v-20.5019531h25.1611328l-36.1103516-79.6757812h31.4511719l25.3935547,64.5332031,24.4619141-64.5332031h31.21875l-36.1113281,79.6757812h25.1611328v20.5019531h-30.0527344v12.8134766h30.0527344v20.5009766h-30.0527344v27.2578125h-30.5195312v-27.2578125h-30.0537109Z"/>
  <path class="st0" d="M591.8736391,142.9607487l.0035936-.0007986s-.0158384-.0212954-.0316768-.0431231c-.3499094-.5259954-.7132615-1.0424079-1.0928513-1.5460432-3.6271323-5.2482416-15.4197045-23.2931317-25.5927645-49.897692-10.1731931,26.6045603-21.9657652,44.6494503-25.5930307,49.897692-.3795898.5036353-.7427423,1.0200478-1.0927182,1.5460432-.0158384.0218277-.0316768.0431231-.0316768.0431231l.0035936.0007986c-3.3569474,5.0651015-5.3165864,11.1369412-5.3165864,17.6687608,0,17.6897899,14.3404955,32.030352,32.0304185,32.030352,17.6897899,0,32.030352-14.3405621,32.030352-32.030352,0-6.5318195-1.9597056-12.6036592-5.316653-17.6687608Z"/>
  <path class="st1" d="M514.5763202,235.2425293l.0044484-.0009885s-.0196059-.0263609-.0392118-.0533808c-.4331422-.6511137-.8829247-1.2903651-1.3528074-1.9137999-4.4899169-6.496639-19.0875839-28.8338604-31.680506-61.7668377-12.5930868,32.9329773-27.1907538,55.2701988-31.6808355,61.7668377-.4698827.6234348-.9194181,1.2626862-1.3526427,1.9137999-.0196059.0270199-.0392118.0533808-.0392118.0533808l.0044484.0009885c-4.1554633,6.2699354-6.5812409,13.7860814-6.5812409,21.8716224,0,21.8976538,17.751664,39.6494001,39.6494825,39.6494001,21.8976538,0,39.6494001-17.7517463,39.6494001-39.6494001,0-8.085541-2.42586-15.601687-6.5813233-21.8716224Z"/>
</svg>