<?xml version="1.0" encoding="UTF-8"?>
<svg id="_レイヤー_1" xmlns="http://www.w3.org/2000/svg" width="371.3653973mm" height="278.5240588mm" version="1.1" viewBox="0 0 1052.6893311 789.5170288">
  <!-- Generator: Adobe Illustrator 29.7.1, SVG Export Plug-In . SVG Version: 2.1.1 Build 8)  -->
  <defs>
    <style>
      .st0, .st1 {
        stroke-width: 9.1381578px;
      }

      .st0, .st1, .st2, .st3 {
        stroke: #1a1a1a;
        stroke-linecap: round;
        stroke-linejoin: round;
      }

      .st0, .st2 {
        fill: none;
      }

      .st1, .st4, .st3 {
        fill: #fff;
      }

      .st5 {
        fill: #fb9334;
      }

      .st2, .st3 {
        stroke-width: .1903783px;
      }

      .st6 {
        fill: #1a1a1a;
      }
    </style>
  </defs>
  <path class="st4" d="M617.6934814,642.3251953v-87.2866821c0-30.2064819-23.3205566-54.9650574-52.9335327-57.2476501-8.2478027,10.6445312-21.1520996,17.4923401-35.6618652,17.4923401s-27.4140625-6.8478088-35.6618652-17.4923401c-29.6129761,2.2825928-52.9335327,27.0411682-52.9335327,57.2476501v87.2866821h177.1907959Z"/>
  <rect class="st5" x="122.5459595" y="200.8023071" width="336.3722229" height="256.2290802" rx="34.9485321" ry="34.9485321"/>
  <rect class="st5" x="593.7711792" y="200.8023529" width="336.3722534" height="256.2290802" rx="34.9485321" ry="34.9485321"/>
  <g>
    <path class="st1" d="M302.8204956,267.4666443s-18.7502136-8.1633301-72.9390564-8.1633301-72.9390564,8.1633301-72.9390564,8.1633301c0,0,20.4746857,30.3132935,72.9390564,30.3132935s72.9390564-30.3132935,72.9390564-30.3132935Z"/>
    <polygon class="st1" points="254.2558746 361.725769 205.5070038 361.725769 209.7358398 336.1563721 250.0270386 336.1563721 254.2558746 361.725769"/>
    <path class="st1" d="M302.8204956,267.4666443v4.3272095c0,40.2830811-32.6558838,72.9389954-72.9389954,72.9389954h-.0001526c-40.2830811,0-72.9389954-32.6558838-72.9389954-72.9389954v-4.3272095s18.4321899,12.3591003,72.9390564,12.3591003,72.9390564-12.3591003,72.9390564-12.3591003h.0000305Z"/>
    <polygon class="st6" points="160.4800415 389.8973694 298.1059875 389.8973694 298.1059875 378.6499329 160.4800415 385.6880493 160.4800415 389.8973694"/>
    <polygon class="st6" points="160.4800415 392.1283569 298.1059875 392.1283569 298.1059875 403.3757629 160.4800415 396.3376465 160.4800415 392.1283569"/>
  </g>
  <path class="st4" d="M385.014801,311.3370667v-14.9306641l12.1972656-9.1484375h13.7744141v72.5527344h-13.7744141v-57.3056641l-12.1972656,8.8320312Z"/>
  <g>
    <g>
      <path class="st4" d="M581.6514893,501.7264709c21.1239014,8.4772949,36.0419922,29.1517029,36.0419922,53.3111267v87.2866821"/>
      <path class="st4" d="M440.502655,642.3243408v-87.2866821c0-30.2064819,23.3205566-54.9650574,52.9335632-57.2476501,8.2477722,10.6445312,21.1520996,17.4923401,35.6618652,17.4923401s27.4140015-6.8478088,35.6618652-17.4923401"/>
      <ellipse class="st4" cx="529.7912598" cy="440.0248413" rx="40.4855957" ry="47.2463074"/>
    </g>
    <g>
      <path class="st3" d="M581.6514893,501.7264709c21.1239014,8.4772949,36.0419922,29.1517029,36.0419922,53.3111267v87.2866821"/>
      <path class="st3" d="M440.502655,642.3243408v-87.2866821c0-30.2064819,23.3205566-54.9650574,52.9335632-57.2476501,8.2477722,10.6445312,21.1520996,17.4923401,35.6618652,17.4923401s27.4140015-6.8478088,35.6618652-17.4923401"/>
      <line class="st2" x1="473.3664246" y1="642.3251953" x2="473.3664246" y2="567.7098389"/>
      <line class="st2" x1="584.8302612" y1="642.3251953" x2="584.8302612" y2="567.7098389"/>
      <ellipse class="st3" cx="529.7912598" cy="440.0248413" rx="40.4855957" ry="47.2463074"/>
    </g>
    <g>
      <path class="st0" d="M581.6514893,501.7264709c21.1239014,8.4772949,36.0419922,29.1517029,36.0419922,53.3111267v87.2866821"/>
      <path class="st0" d="M440.502655,642.3243408v-87.2866821c0-30.2064819,23.3205566-54.9650574,52.9335632-57.2476501,8.2477722,10.6445312,21.1520996,17.4923401,35.6618652,17.4923401s27.4140015-6.8478088,35.6618652-17.4923401"/>
      <line class="st0" x1="473.3664246" y1="642.3251953" x2="473.3664246" y2="567.7098389"/>
      <line class="st0" x1="584.8302612" y1="642.3251953" x2="584.8302612" y2="567.7098389"/>
      <ellipse class="st0" cx="529.7912598" cy="440.0248413" rx="40.4855957" ry="47.2463074"/>
    </g>
  </g>
  <polygon class="st5" points="660.3484497 438.6737061 660.3484497 517.6121216 741.8656006 436.0950317 660.3484497 438.6737061"/>
  <path class="st4" d="M334.4454651,330.7901917l-12.5126953-12.6181641,7.9912109-7.9912109,12.6181641,12.5126953,12.5126953-12.5126953,7.9912109,8.0966797-12.5126953,12.5126953,12.5126953,12.5126953-7.9912109,8.0957031-12.5126953-12.6171875-12.6181641,12.6171875-7.9912109-8.0957031,12.5126953-12.5126953Z"/>
  <polygon class="st5" points="392.3409119 438.6737061 392.3409119 517.6121216 310.8237915 436.0950317 392.3409119 438.6737061"/>
  <path class="st4" d="M856.9972534,311.3370667v-14.9306641l12.1972656-9.1484375h13.7744141v72.5527344h-13.7744141v-57.3056641l-12.1972656,8.8320312Z"/>
  <path class="st4" d="M806.4279175,330.7901917l-12.5126953-12.6181641,7.9912109-7.9912109,12.6181641,12.5126953,12.5126953-12.5126953,7.9912109,8.0966797-12.5126953,12.5126953,12.5126953,12.5126953-7.9912109,8.0957031-12.5126953-12.6171875-12.6181641,12.6171875-7.9912109-8.0957031,12.5126953-12.5126953Z"/>
  <g>
    <path class="st4" d="M758.4926758,290.6270447s-31.5883179-20.0139771-56.3675537,0-58.5820312,0-58.5820312,0l14.4299927,117.5940552h87.78302l12.7365112-117.5940552h.000061Z"/>
    <polyline class="st0" points="763.7938232 254.4579926 745.7561646 408.2210999 657.9730835 408.2210999 639.9354248 254.4579926"/>
  </g>
</svg>