<svg xmlns="http://www.w3.org/2000/svg" xmlns:xlink="http://www.w3.org/1999/xlink" viewBox="0 0 106.58 88.24"><defs><style>.cls-1,.cls-3{fill:none;}.cls-2,.cls-6{fill:#c5b37f;}.cls-3{stroke:#25283b;stroke-width:3px;}.cls-3,.cls-6{stroke-miterlimit:10;}.cls-4{clip-path:url(#clip-path);}.cls-5{fill:#25283b;}.cls-6{stroke:#c5b37f;}</style><clipPath id="clip-path" transform="translate(20.2)"><circle class="cls-1" cx="41.5" cy="41.5" r="40"/></clipPath></defs><g id="レイヤー_2" data-name="レイヤー 2"><g id="レイヤー_1-2" data-name="レイヤー 1"><circle class="cls-2" cx="61.7" cy="41.5" r="40"/><circle class="cls-3" cx="61.7" cy="41.5" r="40"/><g class="cls-4"><rect class="cls-5" x="51.81" y="-2.29" width="0.95" height="90.64" transform="matrix(0.85, -0.53, 0.53, 0.85, 5.36, 34.12)"/><rect class="cls-5" x="46.47" y="0.28" width="0.95" height="85.49" transform="translate(6.14 24.75) rotate(-25.83)"/><rect class="cls-5" x="41.12" y="2.31" width="0.95" height="81.42" transform="translate(8.42 15.95) rotate(-19.07)"/><rect class="cls-5" x="35.77" y="3.73" width="0.95" height="78.59" transform="translate(12.21 8.26) rotate(-11.72)"/><rect class="cls-5" x="30.42" y="4.46" width="0.95" height="77.14" transform="translate(17.3 2.23) rotate(-3.96)"/><rect class="cls-5" x="-13.02" y="42.55" width="77.14" height="0.95" transform="translate(1.05 65.52) rotate(-86.02)"/><rect class="cls-5" x="-19.1" y="42.55" width="78.59" height="0.95" transform="translate(-5.84 54.06) rotate(-78.28)"/><rect class="cls-5" x="-25.86" y="42.55" width="81.42" height="0.95" transform="translate(-10.47 42.98) rotate(-70.91)"/><rect class="cls-5" x="-33.25" y="42.55" width="85.49" height="0.95" transform="translate(-13.17 32.83) rotate(-64.17)"/><rect class="cls-5" x="-41.17" y="42.55" width="90.64" height="0.95" transform="translate(-14.38 23.82) rotate(-58.11)"/></g><g class="cls-4"><path class="cls-5" d="M85.65,86.62C85.49,86,81.49,72,62,53.4V48.83h3.21a.71.71,0,0,0,.71-.72V43.89a.71.71,0,0,0-.71-.71H62V31.68h10.1a.72.72,0,0,0,.48-1.25c-.32-.29-7.75-6.75-16.74-8.35V17.44a.72.72,0,0,0-.72-.72H48.88a.72.72,0,0,0-.71.72v4.64c-9.06,1.42-16.42,8.06-16.74,8.35a.71.71,0,0,0,.47,1.25H42v11.5H38.8a.71.71,0,0,0-.72.71v4.22a.72.72,0,0,0,.72.72H42V53.4C22.55,72,18.55,86,18.39,86.62a.71.71,0,0,0,.12.62.73.73,0,0,0,.57.29H31.9a.73.73,0,0,0,.72-.65A44.85,44.85,0,0,1,52,57.12a44.89,44.89,0,0,1,19.4,29.76.72.72,0,0,0,.71.65H85a.73.73,0,0,0,.58-.29A.71.71,0,0,0,85.65,86.62Z" transform="translate(20.2)"/><path class="cls-5" d="M85,88.24H72.13A1.44,1.44,0,0,1,70.71,87,44.38,44.38,0,0,0,52,58a44.37,44.37,0,0,0-18.7,29,1.42,1.42,0,0,1-1.42,1.29H19.08A1.4,1.4,0,0,1,18,87.67a1.45,1.45,0,0,1-.25-1.24c.17-.59,4.19-14.73,23.6-33.34V49.54H38.8a1.43,1.43,0,0,1-1.43-1.43V43.89a1.43,1.43,0,0,1,1.43-1.42h2.5V32.39H31.9a1.43,1.43,0,0,1-1.33-.92A1.44,1.44,0,0,1,31,29.89c1.32-1.17,8.1-6.88,16.5-8.41v-4A1.43,1.43,0,0,1,48.88,16h6.27a1.43,1.43,0,0,1,1.43,1.43v4c8.93,1.8,16.18,8.13,16.5,8.4a1.43,1.43,0,0,1-1,2.5H62.74V42.47h2.5a1.43,1.43,0,0,1,1.42,1.42v4.22a1.43,1.43,0,0,1-1.42,1.43h-2.5v3.55C82.15,71.7,86.17,85.84,86.33,86.43A1.43,1.43,0,0,1,85,88.24ZM52,56.41a.72.72,0,0,1,.4.12A45.83,45.83,0,0,1,72.13,86.81H85c-.16-.58-4.1-14.46-23.42-32.9a.7.7,0,0,1-.22-.51V48.83a.71.71,0,0,1,.71-.71h3.21V43.89H62a.71.71,0,0,1-.71-.71V31.68A.71.71,0,0,1,62,31h10.1c-.3-.28-7.58-6.62-16.39-8.19a.72.72,0,0,1-.58-.7V17.44H48.88v4.65a.72.72,0,0,1-.6.7c-8.28,1.3-15.08,7-16.36,8.16L42,31a.71.71,0,0,1,.71.71v11.5a.71.71,0,0,1-.71.71H38.8v4.22H42a.71.71,0,0,1,.71.71V53.4a.7.7,0,0,1-.22.51C23.18,72.35,19.23,86.23,19.07,86.81H31.9A45.77,45.77,0,0,1,51.62,56.53.72.72,0,0,1,52,56.41Z" transform="translate(20.2)"/><rect class="cls-6" x="67.6" y="33.29" width="9.23" height="6.76" rx="1.91"/></g></g></g></svg>